<?xml version="1.0" encoding="UTF-8" standalone="no"?>
<!DOCTYPE svg PUBLIC "-//W3C//DTD SVG 1.1//EN"
 "http://www.w3.org/Graphics/SVG/1.1/DTD/svg11.dtd">
<!-- Generated by graphviz version 2.43.0 (0)
 -->
<!-- Title: _171 Pages: 1 -->
<svg width="2156pt" height="712pt"
 viewBox="0.00 0.00 2155.77 712.32" xmlns="http://www.w3.org/2000/svg" xmlns:xlink="http://www.w3.org/1999/xlink">
<g id="graph0" class="graph" transform="scale(1 1) rotate(0) translate(4 708.32)">
<title>_171</title>
<polygon fill="white" stroke="transparent" points="-4,4 -4,-708.32 2151.77,-708.32 2151.77,4 -4,4"/>
<g id="clust1" class="cluster">
<title>cluster171diagram</title>
<polygon fill="none" stroke="black" points="8,-25.32 8,-696.32 2139.77,-696.32 2139.77,-25.32 8,-25.32"/>
<text text-anchor="start" x="1039.88" y="-678.12" font-family="Times,serif" font-weight="bold" font-size="14.00">Diagram</text>
<text text-anchor="start" x="992.88" y="-664.12" font-family="Times,serif" font-size="14.00">name=Foundation_bot</text>
</g>
<g id="clust2" class="cluster">
<title>cluster171subsystems</title>
<polygon fill="none" stroke="white" points="16,-33.32 16,-644.32 2131.77,-644.32 2131.77,-33.32 16,-33.32"/>
</g>
<!-- s2 -->
<g id="node1" class="node">
<title>s2</title>
<polygon fill="none" stroke="black" points="32.5,-507.32 32.5,-541.32 663.5,-541.32 663.5,-507.32 32.5,-507.32"/>
<text text-anchor="start" x="286.5" y="-528.12" font-family="Times,serif" font-weight="bold" font-size="14.00">MultibodyPlant</text>
<text text-anchor="start" x="304" y="-514.12" font-family="Times,serif" font-size="14.00">name=plant</text>
<polygon fill="none" stroke="black" points="32.5,-486.32 32.5,-507.32 299.5,-507.32 299.5,-486.32 32.5,-486.32"/>
<text text-anchor="start" x="107.5" y="-493.12" font-family="Times,serif" font-size="14.00">geometry_query</text>
<polygon fill="none" stroke="black" points="299.5,-486.32 299.5,-507.32 663.5,-507.32 663.5,-486.32 299.5,-486.32"/>
<text text-anchor="start" x="427" y="-493.12" font-family="Times,serif" font-size="14.00">geometry_pose</text>
<polygon fill="none" stroke="black" points="32.5,-465.32 32.5,-486.32 299.5,-486.32 299.5,-465.32 32.5,-465.32"/>
<text text-anchor="start" x="132.5" y="-472.12" font-family="Times,serif" font-size="14.00" fill="grey">actuation</text>
<polygon fill="none" stroke="black" points="299.5,-465.32 299.5,-486.32 663.5,-486.32 663.5,-465.32 299.5,-465.32"/>
<text text-anchor="start" x="369.5" y="-472.12" font-family="Times,serif" font-size="14.00">deformable_body_configuration</text>
<polygon fill="none" stroke="black" points="32.5,-444.32 32.5,-465.32 299.5,-465.32 299.5,-444.32 32.5,-444.32"/>
<text text-anchor="start" x="73" y="-451.12" font-family="Times,serif" font-size="14.00">applied_generalized_force</text>
<polygon fill="none" stroke="black" points="299.5,-444.32 299.5,-465.32 663.5,-465.32 663.5,-444.32 299.5,-444.32"/>
<text text-anchor="start" x="463" y="-451.12" font-family="Times,serif" font-size="14.00">state</text>
<polygon fill="none" stroke="black" points="32.5,-423.32 32.5,-444.32 299.5,-444.32 299.5,-423.32 32.5,-423.32"/>
<text text-anchor="start" x="90.5" y="-430.12" font-family="Times,serif" font-size="14.00">applied_spatial_force</text>
<polygon fill="none" stroke="black" points="299.5,-423.32 299.5,-444.32 663.5,-444.32 663.5,-423.32 299.5,-423.32"/>
<text text-anchor="start" x="440.5" y="-430.12" font-family="Times,serif" font-size="14.00">body_poses</text>
<polygon fill="none" stroke="black" points="32.5,-402.32 32.5,-423.32 299.5,-423.32 299.5,-402.32 32.5,-402.32"/>
<text text-anchor="start" x="55.5" y="-409.12" font-family="Times,serif" font-size="14.00" fill="grey">WorldModelInstance_actuation</text>
<polygon fill="none" stroke="black" points="299.5,-402.32 299.5,-423.32 663.5,-423.32 663.5,-402.32 299.5,-402.32"/>
<text text-anchor="start" x="399.5" y="-409.12" font-family="Times,serif" font-size="14.00">body_spatial_velocities</text>
<polygon fill="none" stroke="black" points="32.5,-381.32 32.5,-402.32 299.5,-402.32 299.5,-381.32 32.5,-381.32"/>
<text text-anchor="start" x="41" y="-388.12" font-family="Times,serif" font-size="14.00" fill="grey">WorldModelInstance_desired_state</text>
<polygon fill="none" stroke="black" points="299.5,-381.32 299.5,-402.32 663.5,-402.32 663.5,-381.32 299.5,-381.32"/>
<text text-anchor="start" x="386" y="-388.12" font-family="Times,serif" font-size="14.00">body_spatial_accelerations</text>
<polygon fill="none" stroke="black" points="32.5,-360.32 32.5,-381.32 299.5,-381.32 299.5,-360.32 32.5,-360.32"/>
<text text-anchor="start" x="50" y="-367.12" font-family="Times,serif" font-size="14.00" fill="grey">DefaultModelInstance_actuation</text>
<polygon fill="none" stroke="black" points="299.5,-360.32 299.5,-381.32 663.5,-381.32 663.5,-360.32 299.5,-360.32"/>
<text text-anchor="start" x="392.5" y="-367.12" font-family="Times,serif" font-size="14.00">generalized_acceleration</text>
<polygon fill="none" stroke="black" points="32.5,-339.32 32.5,-360.32 299.5,-360.32 299.5,-339.32 32.5,-339.32"/>
<text text-anchor="start" x="35.5" y="-346.12" font-family="Times,serif" font-size="14.00" fill="grey">DefaultModelInstance_desired_state</text>
<polygon fill="none" stroke="black" points="299.5,-339.32 299.5,-360.32 663.5,-360.32 663.5,-339.32 299.5,-339.32"/>
<text text-anchor="start" x="433" y="-346.12" font-family="Times,serif" font-size="14.00" fill="grey">net_actuation</text>
<polygon fill="none" stroke="black" points="32.5,-318.32 32.5,-339.32 299.5,-339.32 299.5,-318.32 32.5,-318.32"/>
<text text-anchor="start" x="99.5" y="-325.12" font-family="Times,serif" font-size="14.00" fill="grey">onshape_actuation</text>
<polygon fill="none" stroke="black" points="299.5,-318.32 299.5,-339.32 663.5,-339.32 663.5,-318.32 299.5,-318.32"/>
<text text-anchor="start" x="427" y="-325.12" font-family="Times,serif" font-size="14.00">reaction_forces</text>
<polygon fill="none" stroke="black" points="32.5,-297.32 32.5,-318.32 299.5,-318.32 299.5,-297.32 32.5,-297.32"/>
<text text-anchor="start" x="84.5" y="-304.12" font-family="Times,serif" font-size="14.00" fill="grey">onshape_desired_state</text>
<polygon fill="none" stroke="black" points="299.5,-297.32 299.5,-318.32 663.5,-318.32 663.5,-297.32 299.5,-297.32"/>
<text text-anchor="start" x="427" y="-304.12" font-family="Times,serif" font-size="14.00">contact_results</text>
<polyline fill="none" stroke="grey" points="32.5,-297.32 32.5,-45.32 299.5,-45.32 "/>
<polygon fill="none" stroke="black" points="299.5,-276.32 299.5,-297.32 663.5,-297.32 663.5,-276.32 299.5,-276.32"/>
<text text-anchor="start" x="386.5" y="-283.12" font-family="Times,serif" font-size="14.00" fill="grey">WorldModelInstance_state</text>
<polygon fill="none" stroke="black" points="299.5,-255.32 299.5,-276.32 663.5,-276.32 663.5,-255.32 299.5,-255.32"/>
<text text-anchor="start" x="316" y="-262.12" font-family="Times,serif" font-size="14.00" fill="grey">WorldModelInstance_generalized_acceleration</text>
<polygon fill="none" stroke="black" points="299.5,-234.32 299.5,-255.32 663.5,-255.32 663.5,-234.32 299.5,-234.32"/>
<text text-anchor="start" x="308" y="-241.12" font-family="Times,serif" font-size="14.00" fill="grey">WorldModelInstance_generalized_contact_forces</text>
<polygon fill="none" stroke="black" points="299.5,-213.32 299.5,-234.32 663.5,-234.32 663.5,-213.32 299.5,-213.32"/>
<text text-anchor="start" x="356" y="-220.12" font-family="Times,serif" font-size="14.00" fill="grey">WorldModelInstance_net_actuation</text>
<polygon fill="none" stroke="black" points="299.5,-192.32 299.5,-213.32 663.5,-213.32 663.5,-192.32 299.5,-192.32"/>
<text text-anchor="start" x="381" y="-199.12" font-family="Times,serif" font-size="14.00" fill="grey">DefaultModelInstance_state</text>
<polygon fill="none" stroke="black" points="299.5,-171.32 299.5,-192.32 663.5,-192.32 663.5,-171.32 299.5,-171.32"/>
<text text-anchor="start" x="310.5" y="-178.12" font-family="Times,serif" font-size="14.00" fill="grey">DefaultModelInstance_generalized_acceleration</text>
<polygon fill="none" stroke="black" points="299.5,-150.32 299.5,-171.32 663.5,-171.32 663.5,-150.32 299.5,-150.32"/>
<text text-anchor="start" x="302.5" y="-157.12" font-family="Times,serif" font-size="14.00" fill="grey">DefaultModelInstance_generalized_contact_forces</text>
<polygon fill="none" stroke="black" points="299.5,-129.32 299.5,-150.32 663.5,-150.32 663.5,-129.32 299.5,-129.32"/>
<text text-anchor="start" x="350.5" y="-136.12" font-family="Times,serif" font-size="14.00" fill="grey">DefaultModelInstance_net_actuation</text>
<polygon fill="none" stroke="black" points="299.5,-108.32 299.5,-129.32 663.5,-129.32 663.5,-108.32 299.5,-108.32"/>
<text text-anchor="start" x="430" y="-115.12" font-family="Times,serif" font-size="14.00">onshape_state</text>
<polygon fill="none" stroke="black" points="299.5,-87.32 299.5,-108.32 663.5,-108.32 663.5,-87.32 299.5,-87.32"/>
<text text-anchor="start" x="359.5" y="-94.12" font-family="Times,serif" font-size="14.00">onshape_generalized_acceleration</text>
<polygon fill="none" stroke="black" points="299.5,-66.32 299.5,-87.32 663.5,-87.32 663.5,-66.32 299.5,-66.32"/>
<text text-anchor="start" x="352" y="-73.12" font-family="Times,serif" font-size="14.00">onshape_generalized_contact_forces</text>
<polygon fill="none" stroke="black" points="299.5,-45.32 299.5,-66.32 663.5,-66.32 663.5,-45.32 299.5,-45.32"/>
<text text-anchor="start" x="400" y="-52.12" font-family="Times,serif" font-size="14.00" fill="grey">onshape_net_actuation</text>
</g>
<!-- s3 -->
<g id="node2" class="node">
<title>s3</title>
<polygon fill="none" stroke="black" points="1040.5,-469.32 1040.5,-503.32 1319.5,-503.32 1319.5,-469.32 1040.5,-469.32"/>
<text text-anchor="start" x="1132" y="-490.12" font-family="Times,serif" font-weight="bold" font-size="14.00">SceneGraph</text>
<text text-anchor="start" x="1109.5" y="-476.12" font-family="Times,serif" font-size="14.00">name=scene_graph</text>
<polygon fill="none" stroke="black" points="1040.5,-448.32 1040.5,-469.32 1271.5,-469.32 1271.5,-448.32 1040.5,-448.32"/>
<text text-anchor="start" x="1117.5" y="-455.12" font-family="Times,serif" font-size="14.00">plant_pose</text>
<polygon fill="none" stroke="black" points="1271.5,-385.32 1271.5,-469.32 1319.5,-469.32 1319.5,-385.32 1271.5,-385.32"/>
<text text-anchor="start" x="1274.5" y="-423.62" font-family="Times,serif" font-size="14.00">query</text>
<polygon fill="none" stroke="black" points="1040.5,-427.32 1040.5,-448.32 1271.5,-448.32 1271.5,-427.32 1040.5,-427.32"/>
<text text-anchor="start" x="1086.5" y="-434.12" font-family="Times,serif" font-size="14.00">plant_configuration</text>
<polygon fill="none" stroke="black" points="1040.5,-406.32 1040.5,-427.32 1271.5,-427.32 1271.5,-406.32 1040.5,-406.32"/>
<text text-anchor="start" x="1074.5" y="-413.12" font-family="Times,serif" font-size="14.00">inertia_visualizer_pose</text>
<polygon fill="none" stroke="black" points="1040.5,-385.32 1040.5,-406.32 1271.5,-406.32 1271.5,-385.32 1040.5,-385.32"/>
<text text-anchor="start" x="1043.5" y="-392.12" font-family="Times,serif" font-size="14.00">inertia_visualizer_configuration</text>
</g>
<!-- s2&#45;&gt;s3 -->
<g id="edge14" class="edge">
<title>s2:e&#45;&gt;s3:w</title>
<path fill="none" stroke="black" d="M664.5,-497.32C812,-497.32 853.39,-518.99 996,-481.32 1013.18,-476.78 1016.87,-464.88 1029.6,-460.75"/>
<polygon fill="black" stroke="black" points="1030.11,-464.22 1039.5,-459.32 1029.1,-457.29 1030.11,-464.22"/>
</g>
<!-- s2&#45;&gt;s3 -->
<g id="edge15" class="edge">
<title>s2:e&#45;&gt;s3:w</title>
<path fill="none" stroke="black" d="M664.5,-476.32C738.24,-476.32 925.02,-481.32 996,-461.32 1013.43,-456.4 1016.68,-443.4 1029.47,-438.89"/>
<polygon fill="black" stroke="black" points="1030.16,-442.32 1039.5,-437.32 1029.08,-435.41 1030.16,-442.32"/>
</g>
<!-- s117 -->
<g id="node6" class="node">
<title>s117</title>
<polygon fill="none" stroke="black" points="733.5,-168.32 733.5,-202.32 969.5,-202.32 969.5,-168.32 733.5,-168.32"/>
<text text-anchor="start" x="736.5" y="-189.12" font-family="Times,serif" font-weight="bold" font-size="14.00">ContactResultsToLcmSystem</text>
<text text-anchor="start" x="773" y="-175.12" font-family="Times,serif" font-size="14.00">name=contact_to_lcm</text>
<polygon fill="none" stroke="black" points="733.5,-147.32 733.5,-168.32 851.5,-168.32 851.5,-147.32 733.5,-147.32"/>
<text text-anchor="start" x="783" y="-154.12" font-family="Times,serif" font-size="14.00">u0</text>
<polygon fill="none" stroke="black" points="851.5,-147.32 851.5,-168.32 969.5,-168.32 969.5,-147.32 851.5,-147.32"/>
<text text-anchor="start" x="901.5" y="-154.12" font-family="Times,serif" font-size="14.00">y0</text>
</g>
<!-- s2&#45;&gt;s117 -->
<g id="edge13" class="edge">
<title>s2:e&#45;&gt;s117:w</title>
<path fill="none" stroke="black" d="M664.5,-308.32C734.36,-308.32 666.55,-172.26 722.43,-158.45"/>
<polygon fill="black" stroke="black" points="722.95,-161.91 732.5,-157.32 722.17,-154.95 722.95,-161.91"/>
</g>
<!-- s122 -->
<g id="node12" class="node">
<title>s122</title>
<polygon fill="none" stroke="black" points="1413.5,-203.32 1413.5,-251.32 1666.5,-251.32 1666.5,-203.32 1413.5,-203.32"/>
<text text-anchor="start" x="1469.5" y="-238.12" font-family="Times,serif" font-weight="bold" font-size="14.00">ContactVisualizer</text>
<text text-anchor="start" x="1416.5" y="-224.12" font-family="Times,serif" font-size="14.00">name=meshcat_contact_visualizer</text>
<text text-anchor="start" x="1441.5" y="-210.12" font-family="Times,serif" font-size="14.00">path=/drake/contact_forces</text>
<polygon fill="none" stroke="black" points="1413.5,-182.32 1413.5,-203.32 1594.5,-203.32 1594.5,-182.32 1413.5,-182.32"/>
<text text-anchor="start" x="1449.5" y="-189.12" font-family="Times,serif" font-size="14.00">contact_results</text>
<polyline fill="none" stroke="grey" points="1594.5,-161.32 1666.5,-161.32 1666.5,-203.32 "/>
<polygon fill="none" stroke="black" points="1413.5,-161.32 1413.5,-182.32 1594.5,-182.32 1594.5,-161.32 1413.5,-161.32"/>
<text text-anchor="start" x="1458" y="-168.12" font-family="Times,serif" font-size="14.00">query_object</text>
</g>
<!-- s2&#45;&gt;s122 -->
<g id="edge8" class="edge">
<title>s2:e&#45;&gt;s122:w</title>
<path fill="none" stroke="black" d="M664.5,-308.32C961.53,-308.32 1037.41,-286.38 1327,-220.32 1362.48,-212.22 1371.08,-195.67 1402.48,-192.76"/>
<polygon fill="black" stroke="black" points="1402.66,-196.26 1412.5,-192.32 1402.36,-189.26 1402.66,-196.26"/>
</g>
<!-- s123 -->
<g id="node13" class="node">
<title>s123</title>
<polygon fill="none" stroke="black" points="715.5,-398.32 715.5,-432.32 988.5,-432.32 988.5,-398.32 715.5,-398.32"/>
<text text-anchor="start" x="785" y="-419.12" font-family="Times,serif" font-weight="bold" font-size="14.00">InertiaVisualizer</text>
<text text-anchor="start" x="764.5" y="-405.12" font-family="Times,serif" font-size="14.00">name=inertia_visualizer</text>
<polygon fill="none" stroke="black" points="715.5,-377.32 715.5,-398.32 873.5,-398.32 873.5,-377.32 715.5,-377.32"/>
<text text-anchor="start" x="718.5" y="-384.12" font-family="Times,serif" font-size="14.00">plant_geometry_pose</text>
<polygon fill="none" stroke="black" points="873.5,-377.32 873.5,-398.32 988.5,-398.32 988.5,-377.32 873.5,-377.32"/>
<text text-anchor="start" x="876.5" y="-384.12" font-family="Times,serif" font-size="14.00">geometry_pose</text>
</g>
<!-- s2&#45;&gt;s123 -->
<g id="edge11" class="edge">
<title>s2:e&#45;&gt;s123:w</title>
<path fill="none" stroke="black" d="M664.5,-497.32C714.22,-497.32 668.71,-403.04 704.29,-389.05"/>
<polygon fill="black" stroke="black" points="705.22,-392.44 714.5,-387.32 704.06,-385.54 705.22,-392.44"/>
</g>
<!-- s3&#45;&gt;s2 -->
<g id="edge17" class="edge">
<title>s3:e&#45;&gt;s2:w</title>
<path fill="none" stroke="black" d="M1320.5,-427.32C1340.95,-427.32 1334.12,-395.62 1319.5,-381.32 1228.17,-291.95 1142.09,-316.45 1032,-381.32 1003.55,-398.08 1024.01,-428.82 996,-446.32 941.46,-480.39 759.75,-424.54 707,-461.32 673.68,-484.55 704.91,-522.96 671,-545.32 552.55,-623.43 133.87,-644.6 32.5,-545.32 20.35,-533.42 13.38,-510 21.85,-500.98"/>
<polygon fill="black" stroke="black" points="23.39,-504.14 31.5,-497.32 20.91,-497.59 23.39,-504.14"/>
</g>
<!-- s109 -->
<g id="node3" class="node">
<title>s109</title>
<polygon fill="none" stroke="black" points="1408.5,-86.32 1408.5,-134.32 1671.5,-134.32 1671.5,-86.32 1408.5,-86.32"/>
<text text-anchor="start" x="1476.5" y="-121.12" font-family="Times,serif" font-weight="bold" font-size="14.00">DrakeVisualizer</text>
<text text-anchor="start" x="1411.5" y="-107.12" font-family="Times,serif" font-size="14.00">name=drake_visualizer(illustration)</text>
<text text-anchor="start" x="1419.5" y="-93.12" font-family="Times,serif" font-size="14.00">channel=DRAKE_VIEWER_DRAW</text>
<polygon fill="none" stroke="black" points="1408.5,-65.32 1408.5,-86.32 1585.5,-86.32 1585.5,-65.32 1408.5,-65.32"/>
<text text-anchor="start" x="1451" y="-72.12" font-family="Times,serif" font-size="14.00">query_object</text>
<polyline fill="none" stroke="grey" points="1585.5,-65.32 1671.5,-65.32 1671.5,-86.32 "/>
</g>
<!-- s3&#45;&gt;s109 -->
<g id="edge12" class="edge">
<title>s3:e&#45;&gt;s109:w</title>
<path fill="none" stroke="black" d="M1320.5,-427.32C1383.22,-427.32 1341.54,-207.25 1363,-148.32 1374.68,-116.24 1370.62,-82.88 1397.23,-76.43"/>
<polygon fill="black" stroke="black" points="1397.94,-79.88 1407.5,-75.32 1397.18,-72.92 1397.94,-79.88"/>
</g>
<!-- s113 -->
<g id="node5" class="node">
<title>s113</title>
<polygon fill="none" stroke="black" points="1371.5,-298.32 1371.5,-346.32 1708.5,-346.32 1708.5,-298.32 1371.5,-298.32"/>
<text text-anchor="start" x="1476.5" y="-333.12" font-family="Times,serif" font-weight="bold" font-size="14.00">DrakeVisualizer</text>
<text text-anchor="start" x="1416.5" y="-319.12" font-family="Times,serif" font-size="14.00">name=drake_visualizer(proximity)</text>
<text text-anchor="start" x="1374.5" y="-305.12" font-family="Times,serif" font-size="14.00">channel=DRAKE_VIEWER_DRAW_PROXIMITY</text>
<polygon fill="none" stroke="black" points="1371.5,-277.32 1371.5,-298.32 1585.5,-298.32 1585.5,-277.32 1371.5,-277.32"/>
<text text-anchor="start" x="1432.5" y="-284.12" font-family="Times,serif" font-size="14.00">query_object</text>
<polyline fill="none" stroke="grey" points="1585.5,-277.32 1708.5,-277.32 1708.5,-298.32 "/>
</g>
<!-- s3&#45;&gt;s113 -->
<g id="edge10" class="edge">
<title>s3:e&#45;&gt;s113:w</title>
<path fill="none" stroke="black" d="M1320.5,-427.32C1382.7,-427.32 1313.55,-303.24 1360.35,-288.7"/>
<polygon fill="black" stroke="black" points="1361.07,-292.14 1370.5,-287.32 1360.12,-285.2 1361.07,-292.14"/>
</g>
<!-- s119 -->
<g id="node8" class="node">
<title>s119</title>
<polygon fill="none" stroke="black" points="1398.5,-393.32 1398.5,-441.32 1681.5,-441.32 1681.5,-393.32 1398.5,-393.32"/>
<text text-anchor="start" x="1466.5" y="-428.12" font-family="Times,serif" font-weight="bold" font-size="14.00">MeshcatVisualizer</text>
<text text-anchor="start" x="1401.5" y="-414.12" font-family="Times,serif" font-size="14.00">name=meshcat_visualizer(illustration)</text>
<text text-anchor="start" x="1453.5" y="-400.12" font-family="Times,serif" font-size="14.00">path=/drake/illustration</text>
<polygon fill="none" stroke="black" points="1398.5,-372.32 1398.5,-393.32 1585.5,-393.32 1585.5,-372.32 1398.5,-372.32"/>
<text text-anchor="start" x="1446" y="-379.12" font-family="Times,serif" font-size="14.00">query_object</text>
<polyline fill="none" stroke="grey" points="1585.5,-372.32 1681.5,-372.32 1681.5,-393.32 "/>
</g>
<!-- s3&#45;&gt;s119 -->
<g id="edge19" class="edge">
<title>s3:e&#45;&gt;s119:w</title>
<path fill="none" stroke="black" d="M1320.5,-427.32C1356.42,-427.32 1357.92,-390.36 1387.39,-383.43"/>
<polygon fill="black" stroke="black" points="1387.94,-386.89 1397.5,-382.32 1387.18,-379.93 1387.94,-386.89"/>
</g>
<!-- s120 -->
<g id="node10" class="node">
<title>s120</title>
<polygon fill="none" stroke="black" points="1414.5,-488.32 1414.5,-536.32 1665.5,-536.32 1665.5,-488.32 1414.5,-488.32"/>
<text text-anchor="start" x="1466.5" y="-523.12" font-family="Times,serif" font-weight="bold" font-size="14.00">MeshcatVisualizer</text>
<text text-anchor="start" x="1417.5" y="-509.12" font-family="Times,serif" font-size="14.00">name=meshcat_visualizer(inertia)</text>
<text text-anchor="start" x="1469" y="-495.12" font-family="Times,serif" font-size="14.00">path=/drake/inertia</text>
<polygon fill="none" stroke="black" points="1414.5,-467.32 1414.5,-488.32 1585.5,-488.32 1585.5,-467.32 1414.5,-467.32"/>
<text text-anchor="start" x="1454" y="-474.12" font-family="Times,serif" font-size="14.00">query_object</text>
<polyline fill="none" stroke="grey" points="1585.5,-467.32 1665.5,-467.32 1665.5,-488.32 "/>
</g>
<!-- s3&#45;&gt;s120 -->
<g id="edge20" class="edge">
<title>s3:e&#45;&gt;s120:w</title>
<path fill="none" stroke="black" d="M1320.5,-427.32C1343.12,-427.32 1343.11,-444.54 1363,-455.32 1381.16,-465.16 1387.2,-474.06 1403.35,-476.6"/>
<polygon fill="black" stroke="black" points="1403.28,-480.1 1413.5,-477.32 1403.77,-473.12 1403.28,-480.1"/>
</g>
<!-- s121 -->
<g id="node11" class="node">
<title>s121</title>
<polygon fill="none" stroke="black" points="1403.5,-583.32 1403.5,-631.32 1676.5,-631.32 1676.5,-583.32 1403.5,-583.32"/>
<text text-anchor="start" x="1466.5" y="-618.12" font-family="Times,serif" font-weight="bold" font-size="14.00">MeshcatVisualizer</text>
<text text-anchor="start" x="1406.5" y="-604.12" font-family="Times,serif" font-size="14.00">name=meshcat_visualizer(proximity)</text>
<text text-anchor="start" x="1458.5" y="-590.12" font-family="Times,serif" font-size="14.00">path=/drake/proximity</text>
<polygon fill="none" stroke="black" points="1403.5,-562.32 1403.5,-583.32 1585.5,-583.32 1585.5,-562.32 1403.5,-562.32"/>
<text text-anchor="start" x="1448.5" y="-569.12" font-family="Times,serif" font-size="14.00">query_object</text>
<polyline fill="none" stroke="grey" points="1585.5,-562.32 1676.5,-562.32 1676.5,-583.32 "/>
</g>
<!-- s3&#45;&gt;s121 -->
<g id="edge21" class="edge">
<title>s3:e&#45;&gt;s121:w</title>
<path fill="none" stroke="black" d="M1320.5,-427.32C1378.34,-427.32 1325.84,-505.99 1363,-550.32 1373.49,-562.83 1379.74,-569.53 1392.5,-571.61"/>
<polygon fill="black" stroke="black" points="1392.28,-575.1 1402.5,-572.32 1392.77,-568.12 1392.28,-575.1"/>
</g>
<!-- s3&#45;&gt;s122 -->
<g id="edge9" class="edge">
<title>s3:e&#45;&gt;s122:w</title>
<path fill="none" stroke="black" d="M1320.5,-427.32C1394.94,-427.32 1336.04,-334.7 1363,-265.32 1378.77,-224.75 1367.4,-179.09 1402.52,-172.21"/>
<polygon fill="black" stroke="black" points="1402.85,-175.69 1412.5,-171.32 1402.23,-168.72 1402.85,-175.69"/>
</g>
<!-- drakelcminterface94261261410064in -->
<g id="node4" class="node">
<title>drakelcminterface94261261410064in</title>
<ellipse fill="none" stroke="black" cx="1937.88" cy="-100.32" rx="185.77" ry="18"/>
<text text-anchor="middle" x="1937.88" y="-96.62" font-family="Times,serif" font-size="14.00">drakelcminterface94261261410064in</text>
</g>
<!-- s109&#45;&gt;drakelcminterface94261261410064in -->
<g id="edge1" class="edge">
<title>s109:e&#45;&gt;drakelcminterface94261261410064in</title>
<path fill="none" stroke="#800080" stroke-dasharray="5,2" d="M1680.5,-100.32C1700.3,-100.32 1720.95,-100.32 1741.57,-100.32"/>
<polygon fill="#800080" stroke="#800080" points="1741.68,-103.82 1751.68,-100.32 1741.68,-96.82 1741.68,-103.82"/>
</g>
<!-- s113&#45;&gt;drakelcminterface94261261410064in -->
<g id="edge2" class="edge">
<title>s113:e&#45;&gt;drakelcminterface94261261410064in</title>
<path fill="none" stroke="#800080" stroke-dasharray="5,2" d="M1716,-312.32C1821.52,-312.32 1896.21,-184.84 1924.43,-127.59"/>
<polygon fill="#800080" stroke="#800080" points="1927.68,-128.92 1928.86,-118.39 1921.37,-125.88 1927.68,-128.92"/>
</g>
<!-- s118 -->
<g id="node7" class="node">
<title>s118</title>
<polygon fill="none" stroke="black" points="1054.5,-144.32 1054.5,-206.32 1305.5,-206.32 1305.5,-144.32 1054.5,-144.32"/>
<text text-anchor="start" x="1096.5" y="-193.12" font-family="Times,serif" font-weight="bold" font-size="14.00">LcmPublisherSystem</text>
<text text-anchor="start" x="1062.5" y="-179.12" font-family="Times,serif" font-size="14.00">name=contact_results_publisher</text>
<text text-anchor="start" x="1072" y="-165.12" font-family="Times,serif" font-size="14.00">channel=CONTACT_RESULTS</text>
<text text-anchor="start" x="1057.5" y="-151.12" font-family="Times,serif" font-size="14.00">type=lcmt_contact_results_for_viz</text>
<polygon fill="none" stroke="black" points="1054.5,-123.32 1054.5,-144.32 1227.5,-144.32 1227.5,-123.32 1054.5,-123.32"/>
<text text-anchor="start" x="1093.5" y="-130.12" font-family="Times,serif" font-size="14.00">lcm_message</text>
<polyline fill="none" stroke="grey" points="1227.5,-123.32 1305.5,-123.32 1305.5,-144.32 "/>
</g>
<!-- s117&#45;&gt;s118 -->
<g id="edge18" class="edge">
<title>s117:e&#45;&gt;s118:w</title>
<path fill="none" stroke="black" d="M970.5,-157.32C1005.3,-157.32 1013.65,-137.61 1043.5,-133.91"/>
<polygon fill="black" stroke="black" points="1043.72,-137.4 1053.5,-133.32 1043.31,-130.42 1043.72,-137.4"/>
</g>
<!-- s118&#45;&gt;drakelcminterface94261261410064in -->
<g id="edge3" class="edge">
<title>s118:e&#45;&gt;drakelcminterface94261261410064in</title>
<path fill="none" stroke="#800080" stroke-dasharray="5,2" d="M1314.5,-165.32C1369.15,-165.32 1317.37,-82.39 1363,-52.32 1529.77,57.58 1785.71,-33.26 1890.11,-78.48"/>
<polygon fill="#800080" stroke="#800080" points="1888.88,-81.76 1899.44,-82.57 1891.69,-75.35 1888.88,-81.76"/>
</g>
<!-- meshcat_in -->
<g id="node9" class="node">
<title>meshcat_in</title>
<ellipse fill="none" stroke="magenta" cx="1937.88" cy="-454.32" rx="50.09" ry="18"/>
<text text-anchor="middle" x="1937.88" y="-450.62" font-family="Times,serif" font-size="14.00">Meshcat</text>
</g>
<!-- s119&#45;&gt;meshcat_in -->
<g id="edge4" class="edge">
<title>s119:e&#45;&gt;meshcat_in</title>
<path fill="none" stroke="magenta" stroke-dasharray="5,2" d="M1690.5,-407.32C1760.78,-407.32 1840.36,-426 1889.59,-439.8"/>
<polygon fill="magenta" stroke="magenta" points="1888.74,-443.2 1899.32,-442.58 1890.67,-436.47 1888.74,-443.2"/>
</g>
<!-- s120&#45;&gt;meshcat_in -->
<g id="edge5" class="edge">
<title>s120:e&#45;&gt;meshcat_in</title>
<path fill="none" stroke="magenta" stroke-dasharray="5,2" d="M1674.5,-502.32C1750.63,-502.32 1837.19,-482.52 1889.39,-468.36"/>
<polygon fill="magenta" stroke="magenta" points="1890.33,-471.73 1899.04,-465.69 1888.47,-464.98 1890.33,-471.73"/>
</g>
<!-- s121&#45;&gt;meshcat_in -->
<g id="edge6" class="edge">
<title>s121:e&#45;&gt;meshcat_in</title>
<path fill="none" stroke="magenta" stroke-dasharray="5,2" d="M1685.5,-597.32C1780.51,-597.32 1872.41,-519.19 1913.89,-478.43"/>
<polygon fill="magenta" stroke="magenta" points="1916.44,-480.83 1921.03,-471.28 1911.49,-475.88 1916.44,-480.83"/>
</g>
<!-- s122&#45;&gt;meshcat_in -->
<g id="edge7" class="edge">
<title>s122:e&#45;&gt;meshcat_in</title>
<path fill="none" stroke="magenta" stroke-dasharray="5,2" d="M1675.5,-206.32C1802.83,-206.32 1892.93,-363.11 1924.5,-427.35"/>
<polygon fill="magenta" stroke="magenta" points="1921.4,-428.99 1928.9,-436.48 1927.71,-425.95 1921.4,-428.99"/>
</g>
<!-- s123&#45;&gt;s3 -->
<g id="edge16" class="edge">
<title>s123:e&#45;&gt;s3:w</title>
<path fill="none" stroke="black" d="M989.5,-387.32C1011.18,-387.32 1013.58,-407.96 1029.23,-414.42"/>
<polygon fill="black" stroke="black" points="1029.03,-417.94 1039.5,-416.32 1030.31,-411.05 1029.03,-417.94"/>
</g>
</g>
</svg>
