<?xml version="1.0" encoding="UTF-8" standalone="no"?>
<!DOCTYPE svg PUBLIC "-//W3C//DTD SVG 1.1//EN"
 "http://www.w3.org/Graphics/SVG/1.1/DTD/svg11.dtd">
<!-- Generated by graphviz version 2.43.0 (0)
 -->
<!-- Title: _189 Pages: 1 -->
<svg width="2098pt" height="695pt"
 viewBox="0.00 0.00 2098.27 695.00" xmlns="http://www.w3.org/2000/svg" xmlns:xlink="http://www.w3.org/1999/xlink">
<g id="graph0" class="graph" transform="scale(1 1) rotate(0) translate(4 691)">
<title>_189</title>
<polygon fill="white" stroke="transparent" points="-4,4 -4,-691 2094.27,-691 2094.27,4 -4,4"/>
<g id="clust1" class="cluster">
<title>cluster189diagram</title>
<polygon fill="none" stroke="black" points="8,-8 8,-679 2082.27,-679 2082.27,-8 8,-8"/>
<text text-anchor="start" x="1011.14" y="-660.8" font-family="Times,serif" font-weight="bold" font-size="14.00">Diagram</text>
<text text-anchor="start" x="964.14" y="-646.8" font-family="Times,serif" font-size="14.00">name=Foundation_bot</text>
</g>
<g id="clust2" class="cluster">
<title>cluster189subsystems</title>
<polygon fill="none" stroke="white" points="16,-16 16,-627 2074.27,-627 2074.27,-16 16,-16"/>
</g>
<!-- s2 -->
<g id="node1" class="node">
<title>s2</title>
<polygon fill="none" stroke="black" points="32.5,-469 32.5,-503 663.5,-503 663.5,-469 32.5,-469"/>
<text text-anchor="start" x="286.5" y="-489.8" font-family="Times,serif" font-weight="bold" font-size="14.00">MultibodyPlant</text>
<text text-anchor="start" x="304" y="-475.8" font-family="Times,serif" font-size="14.00">name=plant</text>
<polygon fill="none" stroke="black" points="32.5,-448 32.5,-469 299.5,-469 299.5,-448 32.5,-448"/>
<text text-anchor="start" x="107.5" y="-454.8" font-family="Times,serif" font-size="14.00">geometry_query</text>
<polygon fill="none" stroke="black" points="299.5,-448 299.5,-469 663.5,-469 663.5,-448 299.5,-448"/>
<text text-anchor="start" x="427" y="-454.8" font-family="Times,serif" font-size="14.00">geometry_pose</text>
<polygon fill="none" stroke="black" points="32.5,-427 32.5,-448 299.5,-448 299.5,-427 32.5,-427"/>
<text text-anchor="start" x="55" y="-433.8" font-family="Times,serif" font-size="14.00" fill="grey">WorldModelInstance_actuation</text>
<polygon fill="none" stroke="black" points="299.5,-427 299.5,-448 663.5,-448 663.5,-427 299.5,-427"/>
<text text-anchor="start" x="355.5" y="-433.8" font-family="Times,serif" font-size="14.00" fill="grey">WorldModelInstance_net_actuation</text>
<polygon fill="none" stroke="black" points="32.5,-406 32.5,-427 299.5,-427 299.5,-406 32.5,-406"/>
<text text-anchor="start" x="50" y="-412.8" font-family="Times,serif" font-size="14.00" fill="grey">DefaultModelInstance_actuation</text>
<polygon fill="none" stroke="black" points="299.5,-406 299.5,-427 663.5,-427 663.5,-406 299.5,-406"/>
<text text-anchor="start" x="350.5" y="-412.8" font-family="Times,serif" font-size="14.00" fill="grey">DefaultModelInstance_net_actuation</text>
<polygon fill="none" stroke="black" points="32.5,-385 32.5,-406 299.5,-406 299.5,-385 32.5,-385"/>
<text text-anchor="start" x="99.5" y="-391.8" font-family="Times,serif" font-size="14.00" fill="grey">onshape_actuation</text>
<polygon fill="none" stroke="black" points="299.5,-385 299.5,-406 663.5,-406 663.5,-385 299.5,-385"/>
<text text-anchor="start" x="400" y="-391.8" font-family="Times,serif" font-size="14.00" fill="grey">onshape_net_actuation</text>
<polygon fill="none" stroke="black" points="32.5,-364 32.5,-385 299.5,-385 299.5,-364 32.5,-364"/>
<text text-anchor="start" x="132.5" y="-370.8" font-family="Times,serif" font-size="14.00" fill="grey">actuation</text>
<polygon fill="none" stroke="black" points="299.5,-364 299.5,-385 663.5,-385 663.5,-364 299.5,-364"/>
<text text-anchor="start" x="433" y="-370.8" font-family="Times,serif" font-size="14.00" fill="grey">net_actuation</text>
<polygon fill="none" stroke="black" points="32.5,-343 32.5,-364 299.5,-364 299.5,-343 32.5,-343"/>
<text text-anchor="start" x="40.5" y="-349.8" font-family="Times,serif" font-size="14.00" fill="grey">WorldModelInstance_desired_state</text>
<polygon fill="none" stroke="black" points="299.5,-343 299.5,-364 663.5,-364 663.5,-343 299.5,-343"/>
<text text-anchor="start" x="463" y="-349.8" font-family="Times,serif" font-size="14.00">state</text>
<polygon fill="none" stroke="black" points="32.5,-322 32.5,-343 299.5,-343 299.5,-322 32.5,-322"/>
<text text-anchor="start" x="35.5" y="-328.8" font-family="Times,serif" font-size="14.00" fill="grey">DefaultModelInstance_desired_state</text>
<polygon fill="none" stroke="black" points="299.5,-322 299.5,-343 663.5,-343 663.5,-322 299.5,-322"/>
<text text-anchor="start" x="440.5" y="-328.8" font-family="Times,serif" font-size="14.00">body_poses</text>
<polygon fill="none" stroke="black" points="32.5,-301 32.5,-322 299.5,-322 299.5,-301 32.5,-301"/>
<text text-anchor="start" x="84.5" y="-307.8" font-family="Times,serif" font-size="14.00" fill="grey">onshape_desired_state</text>
<polygon fill="none" stroke="black" points="299.5,-301 299.5,-322 663.5,-322 663.5,-301 299.5,-301"/>
<text text-anchor="start" x="420" y="-307.8" font-family="Times,serif" font-size="14.00">spatial_velocities</text>
<polygon fill="none" stroke="black" points="32.5,-280 32.5,-301 299.5,-301 299.5,-280 32.5,-280"/>
<text text-anchor="start" x="73" y="-286.8" font-family="Times,serif" font-size="14.00">applied_generalized_force</text>
<polygon fill="none" stroke="black" points="299.5,-280 299.5,-301 663.5,-301 663.5,-280 299.5,-280"/>
<text text-anchor="start" x="406.5" y="-286.8" font-family="Times,serif" font-size="14.00">spatial_accelerations</text>
<polygon fill="none" stroke="black" points="32.5,-259 32.5,-280 299.5,-280 299.5,-259 32.5,-259"/>
<text text-anchor="start" x="90.5" y="-265.8" font-family="Times,serif" font-size="14.00">applied_spatial_force</text>
<polygon fill="none" stroke="black" points="299.5,-259 299.5,-280 663.5,-280 663.5,-259 299.5,-259"/>
<text text-anchor="start" x="392.5" y="-265.8" font-family="Times,serif" font-size="14.00">generalized_acceleration</text>
<polyline fill="none" stroke="grey" points="32.5,-259 32.5,-28 299.5,-28 "/>
<polygon fill="none" stroke="black" points="299.5,-238 299.5,-259 663.5,-259 663.5,-238 299.5,-238"/>
<text text-anchor="start" x="386" y="-244.8" font-family="Times,serif" font-size="14.00" fill="grey">WorldModelInstance_state</text>
<polygon fill="none" stroke="black" points="299.5,-217 299.5,-238 663.5,-238 663.5,-217 299.5,-217"/>
<text text-anchor="start" x="315.5" y="-223.8" font-family="Times,serif" font-size="14.00" fill="grey">WorldModelInstance_generalized_acceleration</text>
<polygon fill="none" stroke="black" points="299.5,-196 299.5,-217 663.5,-217 663.5,-196 299.5,-196"/>
<text text-anchor="start" x="381" y="-202.8" font-family="Times,serif" font-size="14.00" fill="grey">DefaultModelInstance_state</text>
<polygon fill="none" stroke="black" points="299.5,-175 299.5,-196 663.5,-196 663.5,-175 299.5,-175"/>
<text text-anchor="start" x="310.5" y="-181.8" font-family="Times,serif" font-size="14.00" fill="grey">DefaultModelInstance_generalized_acceleration</text>
<polygon fill="none" stroke="black" points="299.5,-154 299.5,-175 663.5,-175 663.5,-154 299.5,-154"/>
<text text-anchor="start" x="430" y="-160.8" font-family="Times,serif" font-size="14.00">onshape_state</text>
<polygon fill="none" stroke="black" points="299.5,-133 299.5,-154 663.5,-154 663.5,-133 299.5,-133"/>
<text text-anchor="start" x="359.5" y="-139.8" font-family="Times,serif" font-size="14.00">onshape_generalized_acceleration</text>
<polygon fill="none" stroke="black" points="299.5,-112 299.5,-133 663.5,-133 663.5,-112 299.5,-112"/>
<text text-anchor="start" x="307.5" y="-118.8" font-family="Times,serif" font-size="14.00" fill="grey">WorldModelInstance_generalized_contact_forces</text>
<polygon fill="none" stroke="black" points="299.5,-91 299.5,-112 663.5,-112 663.5,-91 299.5,-91"/>
<text text-anchor="start" x="302.5" y="-97.8" font-family="Times,serif" font-size="14.00" fill="grey">DefaultModelInstance_generalized_contact_forces</text>
<polygon fill="none" stroke="black" points="299.5,-70 299.5,-91 663.5,-91 663.5,-70 299.5,-70"/>
<text text-anchor="start" x="352" y="-76.8" font-family="Times,serif" font-size="14.00">onshape_generalized_contact_forces</text>
<polygon fill="none" stroke="black" points="299.5,-49 299.5,-70 663.5,-70 663.5,-49 299.5,-49"/>
<text text-anchor="start" x="427" y="-55.8" font-family="Times,serif" font-size="14.00">reaction_forces</text>
<polygon fill="none" stroke="black" points="299.5,-28 299.5,-49 663.5,-49 663.5,-28 299.5,-28"/>
<text text-anchor="start" x="427" y="-34.8" font-family="Times,serif" font-size="14.00">contact_results</text>
</g>
<!-- s3 -->
<g id="node2" class="node">
<title>s3</title>
<polygon fill="none" stroke="black" points="1040,-423 1040,-457 1320,-457 1320,-423 1040,-423"/>
<text text-anchor="start" x="1132" y="-443.8" font-family="Times,serif" font-weight="bold" font-size="14.00">SceneGraph</text>
<text text-anchor="start" x="1109.5" y="-429.8" font-family="Times,serif" font-size="14.00">name=scene_graph</text>
<polygon fill="none" stroke="black" points="1040,-402 1040,-423 1272,-423 1272,-402 1040,-402"/>
<text text-anchor="start" x="1117.5" y="-408.8" font-family="Times,serif" font-size="14.00">plant_pose</text>
<polygon fill="none" stroke="black" points="1272,-339 1272,-423 1320,-423 1320,-339 1272,-339"/>
<text text-anchor="start" x="1275" y="-377.3" font-family="Times,serif" font-size="14.00">query</text>
<polygon fill="none" stroke="black" points="1040,-381 1040,-402 1272,-402 1272,-381 1040,-381"/>
<text text-anchor="start" x="1086.5" y="-387.8" font-family="Times,serif" font-size="14.00">plant_configuration</text>
<polygon fill="none" stroke="black" points="1040,-360 1040,-381 1272,-381 1272,-360 1040,-360"/>
<text text-anchor="start" x="1074.5" y="-366.8" font-family="Times,serif" font-size="14.00">inertia_visualizer_pose</text>
<polygon fill="none" stroke="black" points="1040,-339 1040,-360 1272,-360 1272,-339 1040,-339"/>
<text text-anchor="start" x="1043" y="-345.8" font-family="Times,serif" font-size="14.00">inertia_visualizer_configuration</text>
</g>
<!-- s2&#45;&gt;s3 -->
<g id="edge9" class="edge">
<title>s2:e&#45;&gt;s3:w</title>
<path fill="none" stroke="black" d="M664.5,-459C811.98,-459 856.71,-492.48 996,-444 1014.43,-437.59 1015.67,-420.54 1028.93,-414.86"/>
<polygon fill="black" stroke="black" points="1029.8,-418.26 1039,-413 1028.53,-411.38 1029.8,-418.26"/>
</g>
<!-- s117 -->
<g id="node6" class="node">
<title>s117</title>
<polygon fill="none" stroke="black" points="733.5,-49 733.5,-83 969.5,-83 969.5,-49 733.5,-49"/>
<text text-anchor="start" x="736.5" y="-69.8" font-family="Times,serif" font-weight="bold" font-size="14.00">ContactResultsToLcmSystem</text>
<text text-anchor="start" x="773" y="-55.8" font-family="Times,serif" font-size="14.00">name=contact_to_lcm</text>
<polygon fill="none" stroke="black" points="733.5,-28 733.5,-49 851.5,-49 851.5,-28 733.5,-28"/>
<text text-anchor="start" x="783" y="-34.8" font-family="Times,serif" font-size="14.00">u0</text>
<polygon fill="none" stroke="black" points="851.5,-28 851.5,-49 969.5,-49 969.5,-28 851.5,-28"/>
<text text-anchor="start" x="901.5" y="-34.8" font-family="Times,serif" font-size="14.00">y0</text>
</g>
<!-- s2&#45;&gt;s117 -->
<g id="edge8" class="edge">
<title>s2:e&#45;&gt;s117:w</title>
<path fill="none" stroke="black" d="M664.5,-38C691.06,-38 700.12,-38 722.44,-38"/>
<polygon fill="black" stroke="black" points="722.5,-41.5 732.5,-38 722.5,-34.5 722.5,-41.5"/>
</g>
<!-- s122 -->
<g id="node12" class="node">
<title>s122</title>
<polygon fill="none" stroke="black" points="1414.5,-186 1414.5,-234 1667.5,-234 1667.5,-186 1414.5,-186"/>
<text text-anchor="start" x="1470.5" y="-220.8" font-family="Times,serif" font-weight="bold" font-size="14.00">ContactVisualizer</text>
<text text-anchor="start" x="1417.5" y="-206.8" font-family="Times,serif" font-size="14.00">name=meshcat_contact_visualizer</text>
<text text-anchor="start" x="1442.5" y="-192.8" font-family="Times,serif" font-size="14.00">path=/drake/contact_forces</text>
<polygon fill="none" stroke="black" points="1414.5,-165 1414.5,-186 1595.5,-186 1595.5,-165 1414.5,-165"/>
<text text-anchor="start" x="1450.5" y="-171.8" font-family="Times,serif" font-size="14.00">contact_results</text>
<polyline fill="none" stroke="grey" points="1595.5,-144 1667.5,-144 1667.5,-186 "/>
<polygon fill="none" stroke="black" points="1414.5,-144 1414.5,-165 1595.5,-165 1595.5,-144 1414.5,-144"/>
<text text-anchor="start" x="1459" y="-150.8" font-family="Times,serif" font-size="14.00">query_object</text>
</g>
<!-- s2&#45;&gt;s122 -->
<g id="edge18" class="edge">
<title>s2:e&#45;&gt;s122:w</title>
<path fill="none" stroke="black" d="M664.5,-38C696.82,-38 679.09,-80.71 707,-97 976.91,-254.52 1095.04,-176.72 1403.39,-175.03"/>
<polygon fill="black" stroke="black" points="1403.51,-178.53 1413.5,-175 1403.49,-171.53 1403.51,-178.53"/>
</g>
<!-- s123 -->
<g id="node13" class="node">
<title>s123</title>
<polygon fill="none" stroke="black" points="715.5,-381 715.5,-415 988.5,-415 988.5,-381 715.5,-381"/>
<text text-anchor="start" x="785" y="-401.8" font-family="Times,serif" font-weight="bold" font-size="14.00">InertiaVisualizer</text>
<text text-anchor="start" x="764.5" y="-387.8" font-family="Times,serif" font-size="14.00">name=inertia_visualizer</text>
<polygon fill="none" stroke="black" points="715.5,-360 715.5,-381 873.5,-381 873.5,-360 715.5,-360"/>
<text text-anchor="start" x="718.5" y="-366.8" font-family="Times,serif" font-size="14.00">plant_geometry_pose</text>
<polygon fill="none" stroke="black" points="873.5,-360 873.5,-381 988.5,-381 988.5,-360 873.5,-360"/>
<text text-anchor="start" x="876.5" y="-366.8" font-family="Times,serif" font-size="14.00">geometry_pose</text>
</g>
<!-- s2&#45;&gt;s123 -->
<g id="edge14" class="edge">
<title>s2:e&#45;&gt;s123:w</title>
<path fill="none" stroke="black" d="M664.5,-459C705.97,-459 675.5,-384.64 704.6,-371.86"/>
<polygon fill="black" stroke="black" points="705.32,-375.29 714.5,-370 704.03,-368.41 705.32,-375.29"/>
</g>
<!-- s3&#45;&gt;s2 -->
<g id="edge11" class="edge">
<title>s3:e&#45;&gt;s2:w</title>
<path fill="none" stroke="black" d="M1321,-381C1341.45,-381 1334.62,-349.3 1320,-335 1228.51,-245.48 1137.46,-262.46 1032,-335 995.14,-360.35 1032.19,-402.7 996,-429 943.98,-466.81 761.71,-410.2 707,-444 679.4,-461.05 699.03,-491.17 671,-507.5 425.8,-650.35 235.22,-706.08 32.5,-507.5 20.11,-495.36 13.05,-471.35 22,-462.44"/>
<polygon fill="black" stroke="black" points="23.29,-465.69 31.5,-459 20.91,-459.11 23.29,-465.69"/>
</g>
<!-- s109 -->
<g id="node3" class="node">
<title>s109</title>
<polygon fill="none" stroke="black" points="1409.5,-69 1409.5,-117 1672.5,-117 1672.5,-69 1409.5,-69"/>
<text text-anchor="start" x="1477.5" y="-103.8" font-family="Times,serif" font-weight="bold" font-size="14.00">DrakeVisualizer</text>
<text text-anchor="start" x="1412.5" y="-89.8" font-family="Times,serif" font-size="14.00">name=drake_visualizer(illustration)</text>
<text text-anchor="start" x="1420.5" y="-75.8" font-family="Times,serif" font-size="14.00">channel=DRAKE_VIEWER_DRAW</text>
<polygon fill="none" stroke="black" points="1409.5,-48 1409.5,-69 1586.5,-69 1586.5,-48 1409.5,-48"/>
<text text-anchor="start" x="1452" y="-54.8" font-family="Times,serif" font-size="14.00">query_object</text>
<polyline fill="none" stroke="grey" points="1586.5,-48 1672.5,-48 1672.5,-69 "/>
</g>
<!-- s3&#45;&gt;s109 -->
<g id="edge13" class="edge">
<title>s3:e&#45;&gt;s109:w</title>
<path fill="none" stroke="black" d="M1321,-381C1377.37,-381 1344.2,-183.78 1364,-131 1375.99,-99.04 1371.68,-65.58 1398.24,-59.12"/>
<polygon fill="black" stroke="black" points="1398.94,-62.56 1408.5,-58 1398.18,-55.6 1398.94,-62.56"/>
</g>
<!-- s113 -->
<g id="node5" class="node">
<title>s113</title>
<polygon fill="none" stroke="black" points="1372.5,-281 1372.5,-329 1709.5,-329 1709.5,-281 1372.5,-281"/>
<text text-anchor="start" x="1477.5" y="-315.8" font-family="Times,serif" font-weight="bold" font-size="14.00">DrakeVisualizer</text>
<text text-anchor="start" x="1417.5" y="-301.8" font-family="Times,serif" font-size="14.00">name=drake_visualizer(proximity)</text>
<text text-anchor="start" x="1375.5" y="-287.8" font-family="Times,serif" font-size="14.00">channel=DRAKE_VIEWER_DRAW_PROXIMITY</text>
<polygon fill="none" stroke="black" points="1372.5,-260 1372.5,-281 1586.5,-281 1586.5,-260 1372.5,-260"/>
<text text-anchor="start" x="1433.5" y="-266.8" font-family="Times,serif" font-size="14.00">query_object</text>
<polyline fill="none" stroke="grey" points="1586.5,-260 1709.5,-260 1709.5,-281 "/>
</g>
<!-- s3&#45;&gt;s113 -->
<g id="edge12" class="edge">
<title>s3:e&#45;&gt;s113:w</title>
<path fill="none" stroke="black" d="M1321,-381C1371.18,-381 1325.28,-285.87 1361.19,-271.74"/>
<polygon fill="black" stroke="black" points="1362.22,-275.12 1371.5,-270 1361.06,-268.22 1362.22,-275.12"/>
</g>
<!-- s119 -->
<g id="node8" class="node">
<title>s119</title>
<polygon fill="none" stroke="black" points="1399.5,-376 1399.5,-424 1682.5,-424 1682.5,-376 1399.5,-376"/>
<text text-anchor="start" x="1467.5" y="-410.8" font-family="Times,serif" font-weight="bold" font-size="14.00">MeshcatVisualizer</text>
<text text-anchor="start" x="1402.5" y="-396.8" font-family="Times,serif" font-size="14.00">name=meshcat_visualizer(illustration)</text>
<text text-anchor="start" x="1454.5" y="-382.8" font-family="Times,serif" font-size="14.00">path=/drake/illustration</text>
<polygon fill="none" stroke="black" points="1399.5,-355 1399.5,-376 1586.5,-376 1586.5,-355 1399.5,-355"/>
<text text-anchor="start" x="1447" y="-361.8" font-family="Times,serif" font-size="14.00">query_object</text>
<polyline fill="none" stroke="grey" points="1586.5,-355 1682.5,-355 1682.5,-376 "/>
</g>
<!-- s3&#45;&gt;s119 -->
<g id="edge15" class="edge">
<title>s3:e&#45;&gt;s119:w</title>
<path fill="none" stroke="black" d="M1321,-381C1352.46,-381 1361.51,-368.2 1388.24,-365.5"/>
<polygon fill="black" stroke="black" points="1388.68,-368.98 1398.5,-365 1388.34,-361.99 1388.68,-368.98"/>
</g>
<!-- s120 -->
<g id="node10" class="node">
<title>s120</title>
<polygon fill="none" stroke="black" points="1415.5,-471 1415.5,-519 1666.5,-519 1666.5,-471 1415.5,-471"/>
<text text-anchor="start" x="1467.5" y="-505.8" font-family="Times,serif" font-weight="bold" font-size="14.00">MeshcatVisualizer</text>
<text text-anchor="start" x="1418.5" y="-491.8" font-family="Times,serif" font-size="14.00">name=meshcat_visualizer(inertia)</text>
<text text-anchor="start" x="1470" y="-477.8" font-family="Times,serif" font-size="14.00">path=/drake/inertia</text>
<polygon fill="none" stroke="black" points="1415.5,-450 1415.5,-471 1586.5,-471 1586.5,-450 1415.5,-450"/>
<text text-anchor="start" x="1455" y="-456.8" font-family="Times,serif" font-size="14.00">query_object</text>
<polyline fill="none" stroke="grey" points="1586.5,-450 1666.5,-450 1666.5,-471 "/>
</g>
<!-- s3&#45;&gt;s120 -->
<g id="edge16" class="edge">
<title>s3:e&#45;&gt;s120:w</title>
<path fill="none" stroke="black" d="M1321,-381C1352.73,-381 1339.08,-418.35 1364,-438 1380.22,-450.79 1387.59,-457.66 1404.2,-459.49"/>
<polygon fill="black" stroke="black" points="1404.34,-463 1414.5,-460 1404.68,-456.01 1404.34,-463"/>
</g>
<!-- s121 -->
<g id="node11" class="node">
<title>s121</title>
<polygon fill="none" stroke="black" points="1404.5,-566 1404.5,-614 1677.5,-614 1677.5,-566 1404.5,-566"/>
<text text-anchor="start" x="1467.5" y="-600.8" font-family="Times,serif" font-weight="bold" font-size="14.00">MeshcatVisualizer</text>
<text text-anchor="start" x="1407.5" y="-586.8" font-family="Times,serif" font-size="14.00">name=meshcat_visualizer(proximity)</text>
<text text-anchor="start" x="1459.5" y="-572.8" font-family="Times,serif" font-size="14.00">path=/drake/proximity</text>
<polygon fill="none" stroke="black" points="1404.5,-545 1404.5,-566 1586.5,-566 1586.5,-545 1404.5,-545"/>
<text text-anchor="start" x="1449.5" y="-551.8" font-family="Times,serif" font-size="14.00">query_object</text>
<polyline fill="none" stroke="grey" points="1586.5,-545 1677.5,-545 1677.5,-566 "/>
</g>
<!-- s3&#45;&gt;s121 -->
<g id="edge17" class="edge">
<title>s3:e&#45;&gt;s121:w</title>
<path fill="none" stroke="black" d="M1321,-381C1391.21,-381 1320.45,-477.93 1364,-533 1374.13,-545.81 1380.61,-552.33 1393.46,-554.32"/>
<polygon fill="black" stroke="black" points="1393.29,-557.82 1403.5,-555 1393.76,-550.83 1393.29,-557.82"/>
</g>
<!-- s3&#45;&gt;s122 -->
<g id="edge19" class="edge">
<title>s3:e&#45;&gt;s122:w</title>
<path fill="none" stroke="black" d="M1321,-381C1383.12,-381 1339.88,-305.25 1364,-248 1380.83,-208.06 1368.68,-162.24 1403.1,-154.99"/>
<polygon fill="black" stroke="black" points="1403.88,-158.43 1413.5,-154 1403.21,-151.46 1403.88,-158.43"/>
</g>
<!-- drakelcminterface998323328in -->
<g id="node4" class="node">
<title>drakelcminterface998323328in</title>
<ellipse fill="none" stroke="black" cx="1909.64" cy="-83" rx="156.77" ry="18"/>
<text text-anchor="middle" x="1909.64" y="-79.3" font-family="Times,serif" font-size="14.00">drakelcminterface998323328in</text>
</g>
<!-- s109&#45;&gt;drakelcminterface998323328in -->
<g id="edge1" class="edge">
<title>s109:e&#45;&gt;drakelcminterface998323328in</title>
<path fill="none" stroke="#800080" stroke-dasharray="5,2" d="M1681.5,-83C1701.32,-83 1722.12,-83 1742.75,-83"/>
<polygon fill="#800080" stroke="#800080" points="1742.85,-86.5 1752.85,-83 1742.85,-79.5 1742.85,-86.5"/>
</g>
<!-- s113&#45;&gt;drakelcminterface998323328in -->
<g id="edge2" class="edge">
<title>s113:e&#45;&gt;drakelcminterface998323328in</title>
<path fill="none" stroke="#800080" stroke-dasharray="5,2" d="M1717,-295C1815.29,-295 1876.22,-168.05 1898.75,-110.62"/>
<polygon fill="#800080" stroke="#800080" points="1902.09,-111.67 1902.39,-101.08 1895.55,-109.17 1902.09,-111.67"/>
</g>
<!-- s118 -->
<g id="node7" class="node">
<title>s118</title>
<polygon fill="none" stroke="black" points="1055,-49 1055,-111 1306,-111 1306,-49 1055,-49"/>
<text text-anchor="start" x="1097" y="-97.8" font-family="Times,serif" font-weight="bold" font-size="14.00">LcmPublisherSystem</text>
<text text-anchor="start" x="1063" y="-83.8" font-family="Times,serif" font-size="14.00">name=contact_results_publisher</text>
<text text-anchor="start" x="1072" y="-69.8" font-family="Times,serif" font-size="14.00">channel=CONTACT_RESULTS</text>
<text text-anchor="start" x="1058" y="-55.8" font-family="Times,serif" font-size="14.00">type=lcmt_contact_results_for_viz</text>
<polygon fill="none" stroke="black" points="1055,-28 1055,-49 1228,-49 1228,-28 1055,-28"/>
<text text-anchor="start" x="1094" y="-34.8" font-family="Times,serif" font-size="14.00">lcm_message</text>
<polyline fill="none" stroke="grey" points="1228,-28 1306,-28 1306,-49 "/>
</g>
<!-- s117&#45;&gt;s118 -->
<g id="edge20" class="edge">
<title>s117:e&#45;&gt;s118:w</title>
<path fill="none" stroke="black" d="M970.5,-38C1003.99,-38 1014.81,-38 1043.87,-38"/>
<polygon fill="black" stroke="black" points="1044,-41.5 1054,-38 1044,-34.5 1044,-41.5"/>
</g>
<!-- s118&#45;&gt;drakelcminterface998323328in -->
<g id="edge3" class="edge">
<title>s118:e&#45;&gt;drakelcminterface998323328in</title>
<path fill="none" stroke="#800080" stroke-dasharray="5,2" d="M1315,-70C1341.76,-70 1338.51,-43.17 1364,-35 1513.4,12.88 1561.29,-15.8 1717,-35 1760.75,-40.4 1808.87,-52.47 1845.94,-63.16"/>
<polygon fill="#800080" stroke="#800080" points="1845.03,-66.54 1855.61,-65.99 1846.99,-59.82 1845.03,-66.54"/>
</g>
<!-- meshcat_in -->
<g id="node9" class="node">
<title>meshcat_in</title>
<ellipse fill="none" stroke="magenta" cx="1909.64" cy="-437" rx="50.09" ry="18"/>
<text text-anchor="middle" x="1909.64" y="-433.3" font-family="Times,serif" font-size="14.00">Meshcat</text>
</g>
<!-- s119&#45;&gt;meshcat_in -->
<g id="edge4" class="edge">
<title>s119:e&#45;&gt;meshcat_in</title>
<path fill="none" stroke="magenta" stroke-dasharray="5,2" d="M1691.5,-390C1752.15,-390 1820.22,-407.73 1863.71,-421.42"/>
<polygon fill="magenta" stroke="magenta" points="1862.82,-424.81 1873.41,-424.53 1864.96,-418.14 1862.82,-424.81"/>
</g>
<!-- s120&#45;&gt;meshcat_in -->
<g id="edge5" class="edge">
<title>s120:e&#45;&gt;meshcat_in</title>
<path fill="none" stroke="magenta" stroke-dasharray="5,2" d="M1675.5,-485C1741.53,-485 1815.95,-466.3 1862.57,-452.25"/>
<polygon fill="magenta" stroke="magenta" points="1863.84,-455.52 1872.37,-449.24 1861.78,-448.83 1863.84,-455.52"/>
</g>
<!-- s121&#45;&gt;meshcat_in -->
<g id="edge6" class="edge">
<title>s121:e&#45;&gt;meshcat_in</title>
<path fill="none" stroke="magenta" stroke-dasharray="5,2" d="M1686.5,-580C1772.71,-580 1852.08,-502.9 1888.18,-461.93"/>
<polygon fill="magenta" stroke="magenta" points="1890.92,-464.11 1894.81,-454.25 1885.62,-459.53 1890.92,-464.11"/>
</g>
<!-- s122&#45;&gt;meshcat_in -->
<g id="edge7" class="edge">
<title>s122:e&#45;&gt;meshcat_in</title>
<path fill="none" stroke="magenta" stroke-dasharray="5,2" d="M1676.5,-189C1796.3,-189 1872.14,-345.15 1898.35,-409.64"/>
<polygon fill="magenta" stroke="magenta" points="1895.19,-411.16 1902.13,-419.16 1901.7,-408.58 1895.19,-411.16"/>
</g>
<!-- s123&#45;&gt;s3 -->
<g id="edge10" class="edge">
<title>s123:e&#45;&gt;s3:w</title>
<path fill="none" stroke="black" d="M989.5,-370C1007.72,-370 1014.62,-370 1028.95,-370"/>
<polygon fill="black" stroke="black" points="1029,-373.5 1039,-370 1029,-366.5 1029,-373.5"/>
</g>
</g>
</svg>
