# Aspose.3D Wavefront OBJ Exporter
# Copyright 2004-2024 Aspose Pty Ltd.
# File created: 9/30/2024 4:17:21 PM

g obj_720107

#
# object obj_720107
#

v -0.0041479953 -0.0025964307 0.0072036805
v 0.025552996 -0.011925938 0.016178021
v 0.025655188 0.0019916832 0.019946735
v -0.00016691163 0.0049914457 0.007203658
v -0.0011809468 0.004826408 0.007203658
v -0.0011809468 0.0048263655 -0.007203147
v 0.010610282 -0.008930303 -0.0079047065
v 0.029990856 -0.01192546 0.01622261
v 0.02893436 -0.012020721 0.01657813
v 0.031370237 -0.011679988 0.015301147
v 0.02893436 0.0018951817 0.020306883
v 0.027822474 0.0018631046 0.020426597
v 0.030491224 0.002056478 0.019705124
v 0.027822474 -0.012052798 0.016697843
v 0.026710866 -0.012020085 0.016575756
v -0.002752047 -0.0040893387 0.007203684
v -0.0018555056 -0.0045910515 0.007203686
v 0.015331174 -0.010016578 0.0090976255
v 0.00946592 -0.008738034 0.0068008024
v -0.00019381382 0.004987714 -0.007216193
v 0.016148722 0.007223385 0.0006397404
v 0.011847243 0.0049511506 -0.0070445575
v 0.031746067 0.0039611547 0.012596564
v 0.020792997 0.00696625 0.0015713396
v 0.032338656 0.0037155515 0.013513169
v -0.004683912 0.0013689899 0.007203669
v -0.0048622005 0.00035720214 0.0072036716
v -0.004746303 -0.001191119 0.0072084623
v -0.0021398421 0.0044575976 0.007203659
v -0.0030031167 0.0039005852 0.0072036604
v -0.0040934347 0.0027298934 0.0072041545
v 0.026710866 0.0018958177 0.02030451
v -0.004496377 -0.001988852 -0.0072029885
v -0.003527116 -0.0034150202 -0.0072031226
v 0.03232853 -0.011322502 0.013972341
v 0.03282799 -0.010761726 0.0118794935
v 0.032700226 -0.011049391 0.012953075
v 0.011869155 -0.008894647 -0.0072639138
v 0.03270542 -0.010473909 0.010805348
v 0.009520132 -0.008757435 -0.0070059747
v -0.003527116 -0.0034149743 0.007203683
v -0.0022832751 -0.004433901 -0.007207228
v 0.018208858 0.0035063648 0.014472471
v 0.032338656 -0.0102003515 0.009784415
v 0.031746067 -0.009954748 0.0088678105
v 0.03270542 0.0034419936 0.014534102
v 0.021548757 -0.006662675 -0.0019525364
v 0.015061857 0.002842234 -0.007432051
v 0.021440433 0.006470345 0.00144576
v -0.0048878565 -0.00015758537 -0.007203173
v 0.031731516 0.0023485161 0.018615017
v 0.032561053 0.0027256869 0.01720734
v 0.0134301 0.0044828216 0.010820128
v 0.03282799 0.0031541772 0.015608247
v 0.014749655 0.0037697298 -0.0072496366
v 0.0138316555 0.0044991113 -0.0072497204
v -0.0040075034 0.002856775 -0.0072046127
v -0.0046839155 0.0013689436 -0.0072031356
v -0.0021398421 0.0044575543 -0.007203145
v -0.00299667 0.003905484 -0.007208921
v 0.012707882 -0.00846367 -0.0072497223
v 0.013541588 -0.0074211597 -0.0072450805
# 62 vertices

vn -0.3496113 -0.2424874 0.9049706
vn -0.1402868 0.8619597 0.48718077
vn -0.16063987 0.9870131 -2.9033822E-06
vn 0.037620857 -0.98753893 -0.15281206
vn 0.060817394 -0.9834041 -0.17093179
vn 0.11077968 -0.25722587 0.95998055
vn 0.3289876 -0.24441157 0.9121569
vn 0.37151968 -0.23688671 0.89769584
vn 0.1107779 -0.25722605 0.95998067
vn 0.56865066 -0.21791197 0.79319024
vn -0.048760083 -0.99443 -0.093442105
vn -0.016665705 -0.9932942 -0.114406936
vn 0.013988869 -0.99067575 -0.13552086
vn -0.38539353 -0.6886815 0.6141577
vn -0.24907635 -0.9633273 0.09980741
vn 0.007001761 0.9578581 -0.28715646
vn 0.012878846 0.9678961 0.25102046
vn -0.38753626 0.06829089 0.91932154
vn -0.38401318 -0.025888944 0.9229646
vn -0.3672548 -0.15947603 0.9163467
vn -0.25849733 0.67208683 0.6938866
vn -0.32345986 0.5013098 0.8025349
vn -0.3847413 0.1666098 0.907863
vn -0.33107367 -0.24436812 0.9114133
vn -0.112975635 -0.25716203 0.9597417
vn -0.3327396 -0.24407122 0.91088617
vn -0.11297555 -0.257162 0.9597417
vn -0.1613103 0.9869037 4.553877E-05
vn -0.13553669 0.9907723 -3.5516607E-06
vn -0.8270648 -0.56209433 -0.003705391
vn 0.09094742 -0.9761701 -0.19702893
vn 0.13568646 -0.9609111 -0.24132772
vn 0.113249876 -0.9692624 -0.21841417
vn 0.16676664 -0.94689 -0.27493292
vn 0.16470996 -0.94787306 -0.27277705
vn -0.17411304 -0.98462397 -0.014158612
vn -0.35509104 -0.26934007 0.8951906
vn -0.3794563 -0.43612 0.8159732
vn -0.34394804 -0.9389887 -2.9977218E-05
vn -0.3254036 -0.91246223 0.24804282
vn -0.17020725 -0.9852625 -0.016946934
vn 0.00071102695 0.9642554 0.2649737
vn 0.0017680405 0.96474874 0.2631668
vn -0.0010339953 0.96353185 0.26759154
vn 0.8481982 0.13709097 -0.5116306
vn 0.8481982 0.137091 -0.5116307
vn 0.9447382 0.08484751 -0.31665528
vn 0.9447382 0.08484749 -0.31665525
vn 0.74074286 0.12502603 -0.6600519
vn 0.7523865 0.17048974 -0.63627654
vn 0.12035569 0.9316452 -0.3428581
vn 0.5362544 0.78111 -0.31984124
vn -0.9200611 -0.39173302 0.005728165
vn -0.3633439 0.33876482 0.86788225
vn -0.0052874004 0.9619024 0.27334222
vn -0.0051639653 -0.0034155315 -0.99998075
vn -0.004138564 -0.0009854183 -0.999991
vn 0.6729933 -0.1864143 0.7157721
vn 0.002897106 0.96549636 0.2604007
vn 0.002544137 0.96520764 0.26147225
vn 0.8690648 -0.12462864 0.4787423
vn 0.8206108 -0.1513144 0.55109143
vn 0.9431913 -0.08930588 0.3200229
vn -0.21318477 -0.9770118 0.0005357667
vn -0.34394687 -0.9389891 -3.110469E-05
vn -0.79673105 -0.60433406 1.9240667E-06
vn -0.058201395 0.93899196 0.33897898
vn -0.04895441 0.9470762 0.317254
vn 0.20989531 -0.92293406 -0.3227021
vn 0.2960459 -0.8573317 -0.42111665
vn 0.9939805 0.028355485 -0.10582413
vn 0.9939805 0.02835548 -0.10582413
vn 0.9934579 -0.029556844 0.11030768
vn 0.98724264 -0.03779438 0.1546726
vn 0.0067799413 0.9665099 0.2565397
vn 0.6841321 0.35553345 -0.63683534
vn 0.50442874 0.63480633 -0.5852969
vn 0.7392509 0.23998745 -0.62921697
vn -0.91033685 0.41386425 -0.0017846543
vn -0.9173705 0.3980343 -1.0425958E-06
vn -0.98482716 0.1735379 -3.0345493E-07
vn -0.9911891 0.13242082 -0.0029665455
vn -0.35898355 0.9333438 -2.7452727E-06
vn -0.3589828 0.9333442 -2.8054556E-06
vn -0.54216886 0.84026957 -2.5258298E-06
vn -0.5416268 0.840619 4.3457043E-05
vn -0.009984916 0.02595536 -0.9996133
vn -0.02098451 0.047637433 -0.99864423
vn -0.7199892 0.6939853 -8.616274E-05
vn -0.7317793 0.6815397 0.0016373429
vn -0.0044462127 -0.0013987463 -0.99998915
vn 0.39353153 -0.7482678 -0.5340676
vn -0.6336821 -0.7735936 2.462927E-06
vn -0.656392 -0.7544127 -0.0033138704
vn -0.48833767 -0.87264055 0.0049795657
vn 0.00471255 0.9660494 0.25831437
vn 0.50478697 -0.5692855 -0.6489255
vn 0.43987358 0.71266586 -0.5464601
vn 0.014035617 0.46368533 -0.8858888
vn 0.017706292 -0.0015348563 -0.9998421
vn 0.16686662 0.9074935 -0.38550106
vn -0.40489802 0.043337278 -0.9133343
vn -0.0061174924 0.0017884406 -0.9999797
vn -0.9972014 -0.074630424 0.004442547
vn -0.97789025 -0.20904931 -0.0053870105
vn -0.0023416027 0.0014027952 -0.99999624
vn -0.0036007832 0.000114355404 -0.9999935
vn -0.003376835 0.00047554148 -0.99999416
vn -0.122841865 -0.37807506 -0.9175888
vn 0.0034097666 0.9657755 0.25935698
vn 0.003060991 0.9657109 0.25960192
vn 0.5551905 -0.0972855 -0.8260139
vn 0.5279732 -0.41893643 -0.7387399
vn 8.5529144E-05 -7.2710304E-06 -1
vn 0.007024748 -0.0011654373 -0.99997467
vn -0.0029364596 0.0008858953 -0.9999953
vn 0.04256637 0.9894221 -0.13867989
vn -0.030878859 0.9672018 0.25212497
vn 0.0014582855 0.9657948 0.25930345
vn -0.001133666 0.9656985 0.25966358
# 120 vertex normals

s 1
f 1//1 2//1 3//1
f 3//2 4//2 5//2
f 4//3 6//3 5//3
f 7//4 8//4 9//4
f 10//5 8//5 7//5
f 9//6 11//6 12//6
f 8//7 11//7 9//7
f 13//8 11//8 8//8
f 12//9 14//9 9//9
f 10//10 13//10 8//10
f 2//11 7//11 15//11
f 15//12 7//12 14//12
f 14//13 7//13 9//13
f 2//14 16//14 17//14
f 18//15 2//15 19//15
f 20//16 21//16 22//16
f 23//17 24//17 25//17
f 26//18 27//18 3//18
f 3//19 27//19 28//19
f 3//20 28//20 1//20
f 5//21 29//21 3//21
f 3//22 29//22 30//22
f 3//23 31//23 26//23
f 2//24 32//24 3//24
f 12//25 32//25 14//25
f 15//26 32//26 2//26
f 14//27 32//27 15//27
f 4//28 20//28 6//28
f 21//29 20//29 4//29
f 33//30 34//30 1//30
f 35//31 10//31 7//31
f 36//32 37//32 7//32
f 7//33 37//33 35//33
f 7//34 38//34 36//34
f 36//35 38//35 39//35
f 18//36 40//36 2//36
f 1//37 41//37 2//37
f 2//38 41//38 16//38
f 17//39 42//39 19//39
f 17//40 19//40 2//40
f 40//41 7//41 2//41
f 11//42 43//42 12//42
f 13//43 43//43 11//43
f 12//44 43//44 32//44
f 23//45 44//45 45//45
f 25//46 44//46 23//46
f 44//47 46//47 39//47
f 25//48 46//48 44//48
f 45//49 47//49 48//49
f 45//50 48//50 23//50
f 24//51 22//51 21//51
f 23//52 49//52 24//52
f 28//53 33//53 1//53
f 30//54 31//54 3//54
f 32//55 43//55 3//55
f 33//56 38//56 34//56
f 50//57 38//57 33//57
f 10//58 51//58 13//58
f 43//59 51//59 52//59
f 13//60 51//60 43//60
f 52//61 51//61 35//61
f 35//62 51//62 10//62
f 37//63 52//63 35//63
f 18//64 19//64 40//64
f 42//65 40//65 19//65
f 1//66 34//66 41//66
f 3//67 43//67 4//67
f 4//68 43//68 53//68
f 39//69 38//69 44//69
f 44//70 38//70 45//70
f 46//71 54//71 39//71
f 39//72 54//72 36//72
f 36//73 54//73 37//73
f 37//74 54//74 52//74
f 25//75 24//75 46//75
f 48//76 55//76 49//76
f 55//77 56//77 49//77
f 48//78 49//78 23//78
f 57//79 58//79 31//79
f 31//80 58//80 26//80
f 26//81 58//81 27//81
f 27//82 58//82 50//82
f 6//83 59//83 5//83
f 5//84 59//84 29//84
f 29//85 59//85 30//85
f 30//86 59//86 60//86
f 6//87 60//87 59//87
f 20//88 60//88 6//88
f 60//89 57//89 30//89
f 30//90 57//90 31//90
f 34//91 38//91 42//91
f 38//92 61//92 45//92
f 34//93 42//93 41//93
f 41//94 42//94 16//94
f 16//95 42//95 17//95
f 46//96 24//96 54//96
f 61//97 47//97 45//97
f 56//98 24//98 49//98
f 22//99 56//99 20//99
f 38//100 56//100 61//100
f 22//101 24//101 56//101
f 48//102 62//102 55//102
f 57//103 60//103 58//103
f 50//104 28//104 27//104
f 33//105 28//105 50//105
f 38//106 20//106 56//106
f 60//107 38//107 58//107
f 58//108 38//108 50//108
f 38//109 40//109 42//109
f 54//110 24//110 52//110
f 52//111 24//111 43//111
f 47//112 62//112 48//112
f 62//113 47//113 61//113
f 56//114 55//114 61//114
f 61//115 55//115 62//115
f 60//116 20//116 38//116
f 40//117 38//117 7//117
f 53//118 21//118 4//118
f 24//119 21//119 43//119
f 43//120 21//120 53//120
#120 polygons

