# Aspose.3D Wavefront OBJ Exporter
# Copyright 2004-2024 Aspose Pty Ltd.
# File created: 9/30/2024 4:17:21 PM

g obj_61494432

#
# object obj_61494432
#

v -0.005417578 -0.012048364 0.0032246811
v -0.008930579 -0.0020026248 0.00066270726
v -0.0055916533 -0.011559509 -0.011178389
v -0.009082779 -0.0015456993 -0.0086921025
v 0.008634817 -0.01893605 -0.004148923
v -0.0033144802 -0.013664164 0.0029972708
v -0.0043267533 -0.013217576 -0.010786566
v -0.005329162 0.007300781 0.0010975604
v 0.015293039 0.003258478 0.0072827875
v 0.04782644 0.019937642 0.0076030022
v 0.015994053 0.0012153927 0.00767374
v 0.016259912 6.6569075E-05 0.0075614364
v 0.015702851 0.0021716151 0.0076102302
v 0.046165295 0.026976544 -0.0037316254
v 0.04534942 0.026704844 -0.0050037326
v -0.0035578161 0.008280851 0.00051270006
v -0.0047788545 0.007667102 -0.0088353995
v -0.0051716417 0.007333122 -0.008987678
v -0.00535994 0.006614547 -0.009206267
v -0.004490137 -0.013057381 0.0031487048
v 0.011896372 -0.011280224 0.005151944
v 0.015020762 -0.005693093 0.006483516
v 0.011507377 -0.012975454 0.004406939
v 0.04363878 0.013621624 0.008254113
v 0.04504823 0.011335435 0.00830913
v -0.006749481 0.0061092786 0.0011679018
v 0.0107365325 -0.015192375 0.0029774443
v 0.01023731 -0.016681004 0.0015230877
v 0.041060388 -0.0012535714 0.003156446
v 0.047981128 0.024643395 0.0040163356
v -0.0028852075 0.008314442 0.0010596076
v 0.045646716 0.022659374 0.005201493
v -0.0028654933 0.00848746 0.00076586194
v 0.046915874 0.02540264 0.0023029847
v 0.049052738 0.026648844 0.0013688914
v 0.048060916 0.018179104 0.008076251
v 0.046519414 0.02631017 3.8705766E-06
v 0.052000225 0.028011415 -0.00088574714
v 0.046367135 0.026629211 -0.0012235167
v 0.04624832 0.026852917 -0.0024754321
v -0.0037784204 0.008194046 -0.008522052
v 0.046612546 0.024835844 -0.011766775
v 0.04671033 0.023297265 -0.013253063
v 0.05072372 0.024643635 -0.013184061
v 0.048795786 0.027921282 -0.0059439354
v 0.04543388 0.026205216 -0.008369126
v 0.049349423 0.026804961 -0.010250492
v -0.007343173 0.005537862 -0.009051595
v 0.04063744 0.014881175 -0.01594764
v 0.014348488 0.0046029463 -0.013923213
v -0.008856863 0.0020726547 0.0012202747
v -0.008131713 0.004176609 0.0011846689
v -0.005460389 -0.0104636215 0.0032654665
v 0.008656263 -0.017945483 -0.0006140608
v 0.009455036 -0.018564079 -0.0026176106
v 0.042963937 0.009451368 0.0081570465
v 0.043653082 -0.0025203936 -0.0066340226
v 0.008335587 -0.017740682 -0.009386575
v 0.043762207 -0.0016364865 -0.009172156
v 0.050288837 0.0008173995 -0.006116624
v 0.044085436 -0.0025996156 -0.0040778513
v 0.012166534 -0.0028469507 -0.015312908
v 0.009759054 -0.0069416277 -0.01535915
v -0.008880869 0.0021701436 -0.009039653
v 0.009106219 -0.009653185 -0.015229894
v -0.009089157 0.00041130558 0.0010400349
v 0.0502203 0.022942532 0.006229956
v 0.04632962 0.02114894 0.0065890993
v 0.045982637 0.021917239 0.005948379
v 0.057132054 0.027427062 0.00079956604
v 0.056942895 0.028620694 -0.004448938
v 0.053257164 0.025928745 0.0036465763
v 0.04641289 0.02137465 -0.014333913
v 0.042490423 0.017159231 -0.01546742
v 0.051172476 0.020859638 -0.015080487
v 0.04100076 0.0010275654 0.0051930123
v 0.04263994 0.0036445595 0.0064009908
v 0.045570023 0.0076494943 0.0075972215
v 0.008410405 -0.018619657 -0.0066437265
v 0.039781496 -0.0013375431 -0.012456698
v 0.00832551 -0.016823627 -0.01102753
v 0.008370057 -0.015552871 -0.012520235
v 0.042568214 -0.0012712106 -0.010849543
v 0.0408902 -0.0039110277 -0.0021529696
v 0.010620397 -0.017574914 -0.00041749934
v 0.04497038 -0.0015889928 -0.00047010742
v 0.046428844 0.00021880493 -0.010328737
v 0.05371885 0.0037503783 -0.0034761056
v 0.05136121 0.002149254 -0.0012744511
v 0.044506587 0.014609081 -0.016497158
v 0.04011074 0.008712561 -0.01671698
v 0.03901113 0.011039062 -0.01657705
v 0.04083734 0.0069360565 -0.016474053
v 0.05285973 0.020738369 0.007465717
v 0.05060459 0.01735131 0.008140327
v 0.053866673 0.028645 -0.006253762
v 0.066427566 0.022409584 -0.0031833018
v 0.06485035 0.021171888 0.0016747233
v 0.05574728 0.027526394 -0.009466548
v 0.057958324 0.021882031 -0.01357724
v 0.062226795 0.02082432 -0.011835154
v 0.057733145 0.017925115 -0.01405696
v 0.066322826 0.019335415 -0.0024572762
v 0.049470227 0.007988551 0.0065055913
v 0.057709914 0.013375426 0.005212964
v 0.053030282 0.014099828 0.0075354953
v 0.046378367 0.0014358908 0.0031137536
v 0.05514274 0.0059790686 -0.007683374
v 0.050568342 0.00355958 -0.010901203
v 0.06406276 0.019092051 -0.009264007
v 0.06501126 0.017844098 -0.006334166
v 0.055682603 0.008315806 -0.0101854075
v 0.051901285 0.007893485 -0.013260411
v 0.05956506 0.011548738 0.0019169799
v 0.05242938 0.0065600816 0.003608617
v 0.06477475 0.016694993 -0.0031905868
v 0.06508729 0.017653478 -4.621735E-05
v 0.008506905 -0.013963599 -0.013703033
v 0.008672237 -0.012141712 -0.01457355
v 0.057175647 0.024700964 0.0045228465
v 0.055997845 0.017021488 0.0070089693
v 0.06612433 0.022944357 -0.006804467
v 0.057242606 0.024845883 -0.012374761
v 0.04052368 -0.002911169 0.0011501717
v 0.059810616 0.020337798 0.0055916808
v 0.06228132 0.016730722 0.0038857576
v 0.04184901 0.0035165828 -0.015279137
v 0.058582336 0.014996656 -0.012371013
v 0.05893973 0.009388169 -0.0033109635
v 0.052117236 0.017852217 -0.015493652
v 0.039442264 0.00026176125 -0.0140018165
v 0.046383556 0.0031051151 -0.0133777205
v 0.062954575 0.02364426 -0.010515062
v 0.047242414 0.012754638 -0.016393997
v 0.04913888 0.009164639 -0.015226711
v 0.041188587 0.0048038885 -0.01587085
# 136 vertices

vn -0.9439628 -0.33005172 0.0002064322
vn -0.944315 -0.3290419 -0.00070791796
vn -0.40364853 -0.91491413 9.67901E-07
vn -0.199245 0.37122422 0.9069145
vn -0.12670651 -0.12551026 0.98396784
vn -0.13241614 0.23981915 0.9617446
vn -0.35000437 0.9364283 0.02447296
vn -0.15862302 -0.24906662 0.95540804
vn -0.100475214 -0.1771467 0.97904223
vn -0.07030068 -0.38777328 0.91907
vn -0.044585764 0.052680977 0.99761564
vn -0.024894906 0.008708694 0.99965215
vn -0.23840319 0.19663408 0.9510515
vn -0.79375005 -0.60814375 -0.011047767
vn -0.45813975 -0.88886696 0.0048466497
vn -0.7362736 -0.6766835 -0.0008535103
vn 0.3247374 -0.71442527 0.619792
vn -0.264449 0.7045395 0.6585521
vn -0.29698828 0.83135 0.46973935
vn -0.30105734 0.84602755 0.44000214
vn -0.33371255 0.82187325 0.46169278
vn -0.13305639 0.24097662 0.96136695
vn -0.24466808 0.9306002 0.2722512
vn -0.31172615 0.8791698 0.3603987
vn -0.32257232 0.90559006 0.2754156
vn -0.25282902 0.93817234 0.23645328
vn -0.24472305 0.9501872 0.19301525
vn -0.34106344 0.9330572 0.114368156
vn -0.3320344 0.9226002 0.19637209
vn -0.33619395 0.92770666 0.16227747
vn -0.3525662 0.9357868 -0.0003822173
vn -0.4667321 0.884394 0.002899181
vn -0.48271608 0.8757593 0.005553898
vn -0.37616667 0.8700319 0.31865847
vn -0.2612346 0.66201395 -0.70249134
vn -0.25488165 0.6330413 -0.7309541
vn -0.2131612 0.6717696 -0.7094278
vn -0.33721223 0.9229481 -0.18561995
vn -0.34779033 0.935337 -0.06470302
vn -0.3106502 0.8466797 -0.4320069
vn -0.29870945 0.80720586 -0.5091084
vn -0.31751245 0.46623206 -0.82572
vn -0.19178489 0.30692363 -0.9322105
vn -0.10369358 -0.16911122 0.98012704
vn -0.25085244 0.102748565 0.9625569
vn -0.20295192 0.0032288805 0.97918344
vn -0.073395036 -0.6842379 0.72555614
vn -0.25379464 -0.93097854 0.2624257
vn -0.067692354 -0.9605916 0.26959494
vn -0.056143027 -0.52720267 0.84788287
vn -0.07100301 -0.36886236 0.9267681
vn 0.01012028 -0.09157311 0.9957469
vn 0.3979274 -0.87156236 -0.2864137
vn 0.44895115 -0.8496692 -0.27659565
vn 0.4185251 -0.90819824 -0.0035660178
vn -0.2417737 0.15297285 -0.9581987
vn -0.2844408 0.0806673 -0.95529383
vn -0.24175313 0.18117039 0.9532747
vn -0.21621914 0.3123521 0.9250326
vn -0.26793557 0.018590964 -0.96325743
vn -0.81463885 -0.14143537 0.5624586
vn -0.2867603 0.7970489 0.5314899
vn -0.2504563 0.8178156 0.5181208
vn -0.20256048 0.66676295 0.7172143
vn -0.2143725 0.45746246 0.863002
vn -0.23422639 0.5580767 0.79604554
vn -0.20525119 0.64654464 0.7347462
vn -0.19213703 0.57589847 0.7946222
vn -0.06435675 0.10119031 0.9927833
vn -0.22979096 0.96473485 0.12838516
vn -0.25171563 0.9613857 0.1112508
vn 0.038646705 0.974673 0.22027038
vn -0.1602011 0.8169559 0.5540022
vn -0.2482469 0.6262 0.7390852
vn -0.2487369 0.6288201 0.73669213
vn -0.15383956 0.50219166 -0.85096246
vn -0.27295783 0.9221444 -0.2741235
vn -0.3303264 0.9438108 0.010275555
vn -0.31656995 0.8682148 -0.3820818
vn -0.18483825 0.74787194 -0.63759106
vn -0.19714186 0.3531478 -0.9145609
vn -0.19491036 0.33184275 -0.92297906
vn -0.09299469 0.43727222 -0.8945082
vn -0.63845694 0.7696258 -0.0069886115
vn -0.1064766 -0.16073096 0.9812382
vn 0.011093557 -0.09474222 0.99544
vn -0.2511302 0.08920263 0.9638343
vn -0.11913418 -0.81338936 0.5693898
vn 0.2573921 -0.58528566 0.7688889
vn 0.22551605 -0.52119136 0.82310516
vn 0.17233256 -0.4291888 0.88662195
vn 0.14774881 -0.38073978 0.912802
vn 0.39774367 -0.87052053 -0.2898171
vn 0.4107818 -0.89914584 -0.15098073
vn 0.32883903 -0.723921 -0.60646796
vn 0.3436548 -0.7501808 -0.564916
vn -0.22274029 -0.7390263 -0.6357883
vn 0.41319805 -0.8922128 0.18227337
vn 0.411731 -0.8839842 0.22147115
vn 0.42009124 -0.90380776 0.08157741
vn 0.45489946 -0.83934927 -0.29758906
vn 0.6108256 -0.7875751 0.08134832
vn -0.26648065 0.11828289 -0.9565549
vn -0.6464499 -0.036154155 -0.76209927
vn -0.018743148 0.051197484 -0.99851257
vn -0.060766913 0.03128392 -0.99766165
vn -0.07573024 0.055769023 -0.99556756
vn 0.026377117 -0.12483788 -0.99182653
vn -0.20317318 0.23673546 -0.95009315
vn -0.16234946 0.22606623 -0.9604878
vn -0.99041325 0.13808842 0.0036294346
vn -0.022981448 -0.042080864 -0.99884987
vn -0.36558598 -0.9269188 -0.084667325
vn 0.28707978 -0.63376594 0.71827984
vn -0.01469739 0.258013 0.9660296
vn -0.046497587 0.44556358 0.894042
vn -0.1579437 0.5117157 0.8445122
vn -0.00948128 0.048179056 0.9987938
vn -0.08196117 0.89678216 0.43481487
vn -0.13681425 0.9881862 0.06906511
vn 0.559103 0.7417156 0.3704886
vn -0.06089705 0.9310368 -0.3598082
vn -0.017035935 0.8011441 -0.59822893
vn 0.39508477 0.08837287 -0.914384
vn 0.9469881 0.042928588 0.31838757
vn -0.9095812 0.41526088 -0.014845831
vn -0.9453806 0.32592526 0.005308878
vn -0.15211302 0.95181763 -0.2662798
vn -0.20806699 0.42985767 -0.87859577
vn -0.22359034 0.5036965 -0.8344443
vn -0.107980385 0.3506219 -0.9302712
vn -0.1228995 0.21088557 -0.96975404
vn -0.81323576 0.58174825 0.014716087
vn 0.05926143 -0.21701571 0.9743676
vn 0.046084665 -0.19333117 0.9800507
vn -0.6002182 -0.03677766 0.7989903
vn 0.14090477 -0.9287357 0.34292272
vn 0.36954984 -0.35966617 0.85678065
vn 0.33545807 -0.55984396 0.757656
vn 0.32217622 -0.6257755 0.7103573
vn 0.08567305 -0.2760644 0.95731324
vn 0.5124774 -0.85022366 0.12036066
vn 0.494155 -0.75030863 0.4391442
vn 0.032051895 0.17466678 0.98410577
vn 0.41665024 -0.9037168 -0.09848106
vn 0.45338213 -0.8852139 -0.10412047
vn 0.37022206 -0.8099344 -0.45490867
vn -0.29447117 -0.9123775 -0.28434852
vn -0.25005242 -0.84585416 -0.47117364
vn 0.4461812 -0.88420075 0.13824393
vn 0.50792354 -0.8537492 0.11456889
vn 0.7014315 -0.70012563 -0.13348342
vn 0.54393786 -0.7413468 -0.39311153
vn 0.7211257 -0.52181846 -0.45572284
vn 0.57288176 -0.52074975 -0.6329504
vn 0.5771917 -0.6647913 0.47423866
vn 0.8512394 -0.5195671 0.073767975
vn 0.35848612 -0.7219867 -0.59179634
vn -0.16250278 0.22672877 -0.9603057
vn -0.9976315 -0.067558676 0.01293139
vn -0.9985196 0.053195644 -0.011351298
vn -0.2250066 -0.40337077 -0.88694084
vn -0.22851555 -0.38557664 -0.89393026
vn 0.027691646 0.6377484 0.7697467
vn 0.2034366 -0.030271115 0.97862
vn 0.5082027 0.69771475 0.5049001
vn 0.15125135 0.95767736 -0.2449024
vn -0.036842614 0.9041251 0.42567644
vn 0.5237159 0.83456945 0.17092541
vn 0.53876454 0.8387674 0.07875249
vn -0.050633375 0.99373 0.099684365
vn -0.12757815 0.7199313 0.682219
vn 0.058711987 0.74890053 -0.66007644
vn 0.8704547 -0.47982252 -0.109904684
vn 0.99426305 -0.055473953 -0.09145259
vn -0.11421402 0.29300922 -0.9492633
vn -0.20308866 0.23762819 -0.9498883
vn -0.18532987 -0.030285042 0.9822096
vn -0.55154824 -0.013365654 0.83403593
vn 0.12465338 -0.89160615 0.43531582
vn 0.3895309 -0.8357364 0.38705343
vn 0.35452077 -0.7652053 0.5373786
vn 0.3406815 -0.55396324 0.75964516
vn 0.27647197 -0.45509306 0.8464358
vn 0.38795537 -0.7588148 0.5231546
vn 0.4372511 -0.1219063 0.89103895
vn 0.20825328 0.055831082 0.9764802
vn 0.08831525 -0.17682886 0.98027146
vn 0.0025927857 0.02565539 0.9996674
vn 0.18767478 -0.43727785 -0.87952614
vn 0.37415203 -0.8143532 -0.44366547
vn 0.37319797 -0.8150748 -0.4431435
vn -0.2133036 -0.5714115 -0.7924585
vn 0.6753559 -0.47710657 -0.5623732
vn 0.6426643 -0.6241801 -0.44427675
vn 0.6218492 -0.69457686 -0.36175495
vn 0.7174025 -0.66994745 0.19106048
vn -0.09026056 0.31071338 -0.9462083
vn 0.0637383 0.15545173 -0.98578507
vn 0.24527371 0.10291065 -0.9639762
vn 0.28796187 -0.6330944 -0.7185189
vn 0.43824917 -0.6495014 -0.621358
vn 0.21811871 -0.49203658 -0.84280735
vn 0.28764677 -0.52662957 -0.7999504
vn -0.23450188 -0.20947474 -0.94927824
vn 0.06641018 0.5472797 0.8343108
vn 0.60874265 0.042284336 0.7922402
vn 0.12024237 0.8016663 0.5855534
vn 0.09578974 0.4550462 -0.8853007
vn 0.14010489 0.40110758 -0.9052532
vn 0.46604988 0.85232705 -0.23735209
vn 0.8927125 -0.23052673 -0.38719767
vn 0.7309013 -0.67364454 -0.10948214
vn 0.73395073 -0.56812316 -0.37222642
vn 0.94560105 -0.22778365 -0.23227835
vn 0.28109255 -0.31643307 0.9060117
vn 0.4210537 -0.56568396 0.70902425
vn 0.5362606 -0.68136483 0.49816316
vn 0.40767208 -0.7704467 0.49011773
vn 0.47401634 -0.52897286 -0.70391494
vn 0.4661678 -0.3359903 -0.818412
vn 0.36366898 -0.6737863 -0.6432394
vn 0.31925887 -0.62256074 -0.71448714
vn 0.5877803 -0.47043848 -0.6581808
vn 0.73977983 -0.540184 0.4011571
vn 0.91567755 -0.12514906 0.38193214
vn 0.54305136 -0.56663394 0.6196944
vn 0.57330763 -0.5359641 0.61972636
vn 0.6891631 -0.68334067 0.24103902
vn 0.771873 -0.6136572 -0.16624358
vn 0.7573861 -0.6304603 0.16995896
vn 0.77557 -0.6211979 0.11226884
vn 0.094740786 0.084590964 -0.9919015
vn 0.0417988 0.006085727 -0.99910754
vn 0.098742895 -0.09506694 -0.99056154
vn 0.18487182 0.19052811 -0.9641169
vn 0.26411077 -0.59037113 -0.76269746
vn 0.26137045 0.37565508 0.88913935
vn 0.12666821 -0.08927232 0.9879198
vn 0.26452762 0.10554175 0.9585855
vn 0.42258477 0.2925088 -0.85782325
vn 0.35979706 0.42407018 -0.8310899
vn 0.7658142 -0.6159386 -0.18479277
vn 0.76576686 0.09978389 -0.6353301
vn 0.7986795 -0.044258196 -0.6001268
vn 0.64270407 -0.33874467 -0.687156
vn 0.5653333 -0.28227624 -0.7750602
vn 0.37461135 -0.8118171 0.44790545
vn 0.45452747 -0.5220592 0.7217056
vn 0.4243391 -0.2319079 0.87530285
vn 0.44469523 -0.32480183 -0.8347155
vn 0.81868315 -0.20688438 0.53568345
vn 0.28722993 -0.15557931 -0.9451423
vn 0.24810478 -0.06656772 -0.9664433
vn 0.321546 -0.4070797 -0.85492355
vn 0.38662958 -0.42547506 -0.8182228
vn 0.23993987 -0.3011207 -0.92290586
vn 0.20578966 -0.23485824 -0.9499959
vn 0.19930068 -0.20620865 -0.9579964
vn 0.102718554 -0.27038765 -0.95725614
vn 0.14574042 -0.3504837 -0.92515993
vn 0.096254334 -0.2562444 -0.96180767
vn 0.15212913 -0.1666252 0.9742139
vn 0.42132878 0.8599806 -0.28795046
vn 0.33767053 0.772245 -0.53816015
vn 0.39983195 -0.24704391 0.88266855
vn 0.48971808 0.47487044 0.73121434
vn -0.6428466 0.76597536 -0.005483464
# 268 vertex normals

s 1
f 1//1 2//1 3//1
f 4//2 3//2 2//2
f 5//3 6//3 7//3
f 8//4 9//4 10//4
f 11//5 1//5 12//5
f 10//6 9//6 13//6
f 14//7 15//7 16//7
f 17//8 18//8 19//8
f 20//9 21//9 22//9
f 21//10 20//10 23//10
f 24//11 13//11 11//11
f 24//12 11//12 25//12
f 26//13 13//13 9//13
f 3//14 7//14 1//14
f 20//15 7//15 6//15
f 20//16 1//16 7//16
f 27//17 28//17 29//17
f 30//18 31//18 32//18
f 33//19 31//19 34//19
f 33//20 34//20 35//20
f 33//21 8//21 31//21
f 36//22 10//22 13//22
f 37//23 38//23 39//23
f 37//24 33//24 35//24
f 37//25 39//25 33//25
f 35//26 38//26 37//26
f 40//27 39//27 38//27
f 40//28 14//28 16//28
f 40//29 33//29 39//29
f 40//30 16//30 33//30
f 16//31 15//31 41//31
f 16//32 41//32 17//32
f 16//33 17//33 8//33
f 16//34 8//34 33//34
f 17//35 42//35 43//35
f 18//36 17//36 43//36
f 44//37 43//37 42//37
f 45//38 46//38 41//38
f 45//39 41//39 15//39
f 47//40 17//40 41//40
f 47//41 42//41 17//41
f 48//42 17//42 19//42
f 19//43 49//43 50//43
f 20//44 22//44 1//44
f 51//45 13//45 52//45
f 53//46 11//46 13//46
f 6//47 28//47 27//47
f 5//48 54//48 6//48
f 5//49 55//49 54//49
f 23//50 6//50 27//50
f 23//51 20//51 6//51
f 56//52 25//52 11//52
f 57//53 58//53 59//53
f 57//54 59//54 60//54
f 61//55 55//55 5//55
f 62//56 63//56 48//56
f 64//57 63//57 3//57
f 52//58 13//58 26//58
f 26//59 9//59 8//59
f 65//60 3//60 63//60
f 66//61 2//61 1//61
f 30//62 34//62 31//62
f 30//63 35//63 34//63
f 30//64 32//64 67//64
f 10//65 68//65 8//65
f 69//66 8//66 68//66
f 69//67 67//67 32//67
f 67//68 69//68 68//68
f 24//69 36//69 13//69
f 45//70 40//70 38//70
f 45//71 14//71 40//71
f 70//72 71//72 38//72
f 30//73 72//73 35//73
f 31//74 8//74 69//74
f 31//75 69//75 32//75
f 44//76 73//76 43//76
f 45//77 47//77 46//77
f 45//78 15//78 14//78
f 46//79 47//79 41//79
f 47//80 44//80 42//80
f 49//81 18//81 74//81
f 49//82 19//82 18//82
f 75//83 73//83 44//83
f 17//84 48//84 8//84
f 12//85 1//85 22//85
f 12//86 56//86 11//86
f 51//87 53//87 13//87
f 28//88 6//88 54//88
f 27//89 76//89 23//89
f 77//90 23//90 76//90
f 77//91 21//91 23//91
f 77//92 78//92 21//92
f 79//93 58//93 57//93
f 57//94 5//94 79//94
f 80//95 81//95 82//95
f 83//96 81//96 80//96
f 82//97 81//97 7//97
f 84//98 85//98 55//98
f 84//99 86//99 85//99
f 84//100 55//100 61//100
f 87//101 60//101 59//101
f 88//102 89//102 60//102
f 64//103 48//103 63//103
f 64//104 3//104 4//104
f 90//105 91//105 92//105
f 92//106 91//106 63//106
f 92//107 63//107 62//107
f 93//108 65//108 91//108
f 62//109 48//109 50//109
f 50//110 49//110 92//110
f 64//111 66//111 51//111
f 65//112 63//112 91//112
f 7//113 79//113 5//113
f 76//114 27//114 29//114
f 36//115 94//115 10//115
f 67//116 10//116 94//116
f 67//117 68//117 10//117
f 95//118 36//118 24//118
f 35//119 72//119 38//119
f 45//120 38//120 96//120
f 97//121 70//121 98//121
f 96//122 99//122 47//122
f 99//123 44//123 47//123
f 100//124 101//124 102//124
f 97//125 98//125 103//125
f 64//126 52//126 48//126
f 51//127 52//127 64//127
f 47//128 45//128 96//128
f 73//129 74//129 18//129
f 73//130 18//130 43//130
f 74//131 73//131 75//131
f 90//132 92//132 49//132
f 26//133 48//133 52//133
f 22//134 78//134 56//134
f 12//135 22//135 56//135
f 53//136 66//136 1//136
f 55//137 85//137 54//137
f 104//138 105//138 106//138
f 107//139 77//139 76//139
f 107//140 76//140 29//140
f 22//141 21//141 78//141
f 86//142 60//142 89//142
f 89//143 107//143 86//143
f 95//144 94//144 36//144
f 61//145 5//145 57//145
f 61//146 57//146 60//146
f 83//147 58//147 81//147
f 58//148 79//148 7//148
f 58//149 7//149 81//149
f 86//150 84//150 61//150
f 86//151 61//151 60//151
f 108//152 88//152 60//152
f 109//153 60//153 87//153
f 110//154 111//154 112//154
f 112//155 109//155 113//155
f 114//156 115//156 89//156
f 116//157 103//157 117//157
f 80//158 87//158 83//158
f 62//159 50//159 92//159
f 4//160 2//160 66//160
f 4//161 66//161 64//161
f 118//162 7//162 119//162
f 3//163 119//163 7//163
f 120//164 72//164 67//164
f 121//165 95//165 106//165
f 98//166 70//166 120//166
f 71//167 99//167 96//167
f 72//168 70//168 38//168
f 70//169 97//169 71//169
f 71//170 97//170 122//170
f 71//171 96//171 38//171
f 72//172 30//172 67//172
f 123//173 44//173 99//173
f 111//174 103//174 116//174
f 122//175 97//175 103//175
f 90//176 49//176 74//176
f 48//177 19//177 50//177
f 1//178 11//178 53//178
f 66//179 53//179 51//179
f 28//180 54//180 85//180
f 85//181 86//181 124//181
f 28//182 124//182 29//182
f 77//183 107//183 104//183
f 78//184 77//184 104//184
f 107//185 29//185 124//185
f 125//186 121//186 126//186
f 94//187 95//187 121//187
f 56//188 78//188 25//188
f 95//189 24//189 25//189
f 118//190 119//190 127//190
f 59//191 83//191 87//191
f 59//192 58//192 83//192
f 82//193 7//193 118//193
f 128//194 110//194 112//194
f 109//195 112//195 108//195
f 109//196 108//196 60//196
f 129//197 114//197 88//197
f 90//198 74//198 75//198
f 90//199 75//199 130//199
f 130//200 100//200 102//200
f 131//201 80//201 82//201
f 109//202 87//202 132//202
f 131//203 118//203 127//203
f 131//204 127//204 132//204
f 119//205 3//205 65//205
f 120//206 67//206 94//206
f 126//207 98//207 125//207
f 120//208 70//208 72//208
f 123//209 75//209 44//209
f 100//210 75//210 123//210
f 133//211 71//211 122//211
f 110//212 122//212 111//212
f 129//213 88//213 108//213
f 112//214 111//214 108//214
f 111//215 122//215 103//215
f 104//216 106//216 78//216
f 107//217 115//217 104//217
f 115//218 107//218 89//218
f 86//219 107//219 124//219
f 113//220 109//220 132//220
f 113//221 102//221 128//221
f 132//222 87//222 80//222
f 132//223 80//223 131//223
f 113//224 128//224 112//224
f 117//225 126//225 114//225
f 117//226 103//226 98//226
f 114//227 105//227 115//227
f 105//228 114//228 126//228
f 114//229 89//229 88//229
f 129//230 111//230 116//230
f 129//231 117//231 114//231
f 129//232 116//232 117//232
f 134//233 90//233 130//233
f 91//234 90//234 134//234
f 91//235 134//235 93//235
f 75//236 100//236 130//236
f 118//237 131//237 82//237
f 94//238 125//238 120//238
f 25//239 106//239 95//239
f 121//240 125//240 94//240
f 133//241 101//241 100//241
f 123//242 133//242 100//242
f 108//243 111//243 129//243
f 122//244 101//244 133//244
f 110//245 101//245 122//245
f 128//246 101//246 110//246
f 128//247 102//247 101//247
f 85//248 124//248 28//248
f 105//249 104//249 115//249
f 105//250 126//250 121//250
f 135//251 102//251 113//251
f 98//252 126//252 117//252
f 134//253 102//253 135//253
f 134//254 130//254 102//254
f 135//255 132//255 127//255
f 135//256 113//256 132//256
f 135//257 127//257 136//257
f 135//258 136//258 93//258
f 135//259 93//259 134//259
f 136//260 119//260 65//260
f 136//261 127//261 119//261
f 136//262 65//262 93//262
f 106//263 25//263 78//263
f 133//264 99//264 71//264
f 123//265 99//265 133//265
f 121//266 106//266 105//266
f 120//267 125//267 98//267
f 48//268 26//268 8//268
#268 polygons

