# Aspose.3D Wavefront OBJ Exporter
# Copyright 2004-2024 Aspose Pty Ltd.
# File created: 9/30/2024 4:17:21 PM

g obj_27006480

#
# object obj_27006480
#

v -0.0054173097 -0.012048556 0.011094498
v -0.008930303 -0.0020028036 0.008532535
v -0.0055913776 -0.011559686 -0.003308571
v -0.009082504 -0.0015458707 -0.000822274
v 0.008635089 -0.018936241 0.0037208823
v -0.003314212 -0.013664352 0.010867085
v -0.0043264776 -0.013217753 -0.0029167505
v -0.005328886 0.0073005985 0.008967398
v 0.015293326 0.0032582749 0.015152614
v 0.047826745 0.019937426 0.015472835
v 0.01599434 0.0012151878 0.015543563
v 0.0162602 6.636605E-05 0.015431259
v 0.015703138 0.002171414 0.0154800555
v 0.046165608 0.026976345 0.004138215
v 0.045349725 0.026704647 0.0028661077
v -0.003557533 0.008280668 0.008382537
v -0.004778579 0.0076669306 -0.0009655622
v -0.005171351 0.0073329546 -0.0011178409
v -0.005359657 0.006614376 -0.0013364302
v -0.004489869 -0.013057573 0.01101852
v 0.011896651 -0.011280419 0.013021756
v 0.015021045 -0.005693296 0.014353333
v 0.011507653 -0.012975657 0.01227675
v 0.04363908 0.013621409 0.01612394
v 0.045048527 0.011335219 0.016178954
v -0.0067492053 0.006109096 0.009037739
v 0.010736808 -0.01519257 0.010847254
v 0.010237582 -0.0166812 0.009392895
v 0.04106068 -0.0012537818 0.011026259
v 0.047981434 0.024643185 0.011886173
v -0.0028849244 0.00831426 0.0089294445
v 0.04564702 0.022659164 0.013071328
v -0.0028652102 0.008487278 0.0086357
v 0.046916187 0.025402434 0.0101728225
v 0.04905305 0.026648639 0.00923873
v 0.04806122 0.018178888 0.01594608
v 0.04651972 0.026309967 0.00787371
v 0.052000534 0.02801121 0.0069840923
v 0.046367444 0.026629008 0.006646323
v 0.04624863 0.026852716 0.0053944075
v -0.0037781298 0.008193875 -0.0006522145
v 0.04661285 0.024835652 -0.0038969368
v 0.04671064 0.023297075 -0.005383226
v 0.05072403 0.024643444 -0.0053142244
v 0.048796095 0.027921084 0.0019259045
v 0.04543419 0.026205022 -0.0004992867
v 0.049349733 0.02680477 -0.0023806533
v -0.00734289 0.0055376925 -0.001181758
v 0.04063774 0.014880988 -0.008077811
v 0.014348775 0.0046027675 -0.0060533853
v -0.008856587 0.0020724721 0.009090108
v -0.00813143 0.0041764267 0.009054503
v -0.0054601207 -0.01046381 0.011135286
v 0.008656539 -0.017945675 0.0072557456
v 0.009455305 -0.01856427 0.005252195
v 0.042964235 0.009451154 0.01602687
v 0.043653373 -0.0025205985 0.001235788
v 0.008335855 -0.017740866 -0.0015167678
v 0.043762498 -0.0016366877 -0.0013023447
v 0.05028913 0.00081719086 0.0017531877
v 0.044085726 -0.0025998205 0.0037919593
v 0.012166813 -0.0028471276 -0.007443087
v 0.009759333 -0.0069418047 -0.007489334
v -0.008880578 0.0021699723 -0.0011698208
v 0.0091064945 -0.0096533615 -0.0073600784
v -0.009088881 0.0004111249 0.008909866
v 0.05022061 0.02294232 0.014099791
v 0.04632993 0.021148728 0.014458934
v 0.045982942 0.021917028 0.013818215
v 0.057132367 0.02742685 0.008669402
v 0.056943208 0.02862049 0.0034209
v 0.053257473 0.025928533 0.011516413
v 0.046413194 0.02137446 -0.006464079
v 0.042490724 0.017159045 -0.00759759
v 0.05117278 0.020859446 -0.007210655
v 0.04100105 0.0010273531 0.013062827
v 0.042640235 0.0036443416 0.014270808
v 0.04557032 0.0076492764 0.015467042
v 0.008410674 -0.018619845 0.0012260797
v 0.039781787 -0.0013377368 -0.0045868857
v 0.008325778 -0.016823808 -0.0031577218
v 0.008370332 -0.015553055 -0.004650426
v 0.042568505 -0.0012714099 -0.0029797303
v 0.04089049 -0.0039112344 0.0057168407
v 0.010620672 -0.017575113 0.0074523073
v 0.044970673 -0.0015892033 0.0073997034
v 0.04642914 0.00021860376 -0.0024589244
v 0.053719148 0.0037501678 0.004393708
v 0.05136151 0.0021490417 0.0065953615
v 0.04450689 0.014608892 -0.008627329
v 0.04011104 0.008712374 -0.008847156
v 0.039011426 0.011038876 -0.008707224
v 0.040837638 0.0069358684 -0.008604232
v 0.052860036 0.020738153 0.015335549
v 0.050604895 0.017351095 0.016010156
v 0.053866986 0.0286448 0.0016160768
v 0.06642788 0.022409372 0.004686527
v 0.064850666 0.02117167 0.009544551
v 0.05574759 0.027526196 -0.0015967111
v 0.057958633 0.021881836 -0.0057074092
v 0.062227104 0.02082412 -0.0039653247
v 0.057733454 0.01792492 -0.0061871335
v 0.06632314 0.019335201 0.0054125492
v 0.04947053 0.007988333 0.014375411
v 0.05771022 0.013375206 0.013082786
v 0.053030588 0.014099609 0.01540532
v 0.046378665 0.0014356766 0.010983568
v 0.055143043 0.005978862 0.00018644123
v 0.05056864 0.003559379 -0.0030313893
v 0.064063065 0.019091845 -0.001394181
v 0.065011576 0.01784389 0.0015356585
v 0.055682905 0.008315603 -0.0023155902
v 0.051901586 0.007893287 -0.005390592
v 0.059565365 0.011548521 0.0097868
v 0.052429684 0.0065598655 0.011478433
v 0.064775065 0.01669478 0.004679236
v 0.065087594 0.017653262 0.007823607
v 0.008507185 -0.013963776 -0.0058332225
v 0.008672513 -0.012141893 -0.0067037363
v 0.057175957 0.02470075 0.01239268
v 0.055998154 0.017021269 0.0148787955
v 0.06612464 0.022944149 0.0010653622
v 0.05724292 0.024845686 -0.0045049265
v 0.040523972 -0.0029113777 0.009019983
v 0.059810925 0.02033758 0.01346151
v 0.06228163 0.016730504 0.011755581
v 0.041849308 0.003516391 -0.00740932
v 0.05858264 0.014996457 -0.004501189
v 0.05894003 0.009387957 0.0045588543
v 0.05211754 0.017852027 -0.0076238234
v 0.039442554 0.00026156567 -0.006132001
v 0.04638385 0.0031049177 -0.005507906
v 0.06295489 0.023644058 -0.0026452318
v 0.047242716 0.012754447 -0.008524171
v 0.049139183 0.009164445 -0.0073568895
v 0.041188885 0.0048037004 -0.008001032
# 136 vertices

vn -0.9439631 -0.33005092 0.00020563377
vn -0.94431514 -0.3290417 -0.00070816773
vn -0.40364912 -0.9149139 3.8716028E-08
vn -0.19924442 0.37122327 0.9069151
vn -0.12670617 -0.12551115 0.9839677
vn -0.13241604 0.2398189 0.9617447
vn -0.3500037 0.93642855 0.024475891
vn -0.15863623 -0.24906069 0.95540744
vn -0.10047485 -0.17714788 0.9790421
vn -0.07030073 -0.38777214 0.91907054
vn -0.04458501 0.052679148 0.9976157
vn -0.024894703 0.008708001 0.99965215
vn -0.23840241 0.19663386 0.9510517
vn -0.7937499 -0.60814387 -0.011048813
vn -0.45813766 -0.8888681 0.004845492
vn -0.7362736 -0.6766834 -0.0008546282
vn 0.32473722 -0.71442616 0.6197911
vn -0.2644483 0.70453864 0.65855324
vn -0.29698786 0.83135056 0.4697385
vn -0.3010567 0.84602726 0.44000316
vn -0.333712 0.82187396 0.461692
vn -0.1330558 0.24097551 0.9613672
vn -0.24466777 0.93060046 0.2722505
vn -0.31172547 0.8791692 0.3604007
vn -0.322572 0.9055905 0.27541465
vn -0.25282824 0.9381722 0.2364547
vn -0.24472278 0.950187 0.1930166
vn -0.3410629 0.9330573 0.11436854
vn -0.33203378 0.92260015 0.1963734
vn -0.33619332 0.9277071 0.16227706
vn -0.3525657 0.935787 -0.00038136344
vn -0.46672678 0.8843968 0.002899735
vn -0.4827143 0.8757603 0.005555028
vn -0.37616637 0.8700328 0.31865624
vn -0.2612342 0.66201407 -0.70249134
vn -0.2548804 0.6330373 -0.73095804
vn -0.21316105 0.6717701 -0.7094275
vn -0.3372117 0.9229483 -0.18561995
vn -0.3477899 0.9353373 -0.06470227
vn -0.31065196 0.8466862 -0.4319929
vn -0.298709 0.80720603 -0.50910836
vn -0.317511 0.46622992 -0.82572174
vn -0.19178498 0.30692455 -0.93221015
vn -0.10369313 -0.16911262 0.98012686
vn -0.25085196 0.102748655 0.96255696
vn -0.20295097 0.003227376 0.9791836
vn -0.07339515 -0.6842383 0.7255557
vn -0.25379455 -0.9309785 0.26242587
vn -0.06769278 -0.96059155 0.26959497
vn -0.056143153 -0.5272044 0.84788173
vn -0.07100286 -0.36886558 0.9267668
vn 0.0101207495 -0.09157469 0.9957468
vn 0.39792672 -0.8715622 -0.2864151
vn 0.4489505 -0.84966904 -0.27659702
vn 0.41852465 -0.9081985 -0.0035640667
vn -0.24177387 0.15297404 -0.9581985
vn -0.2844411 0.080668464 -0.9552936
vn -0.2417529 0.18116814 0.95327526
vn -0.21621859 0.31235108 0.92503315
vn -0.2679358 0.01859173 -0.9632574
vn -0.8146399 -0.14143603 0.5624568
vn -0.28675973 0.7970489 0.5314902
vn -0.25045657 0.81781507 0.51812154
vn -0.2025601 0.6667623 0.7172151
vn -0.21437187 0.45746168 0.8630026
vn -0.23422556 0.55807495 0.796047
vn -0.20525059 0.6465448 0.7347462
vn -0.19213611 0.57589674 0.7946236
vn -0.064356275 0.101189196 0.9927835
vn -0.22979064 0.9647348 0.12838638
vn -0.25171593 0.96138555 0.11125157
vn 0.038647622 0.97467256 0.22027206
vn -0.16020036 0.8169552 0.5540036
vn -0.24824657 0.6262008 0.7390848
vn -0.24873649 0.6288203 0.7366921
vn -0.15383972 0.5021928 -0.85096157
vn -0.2729581 0.9221448 -0.27412236
vn -0.33032545 0.9438112 0.010278202
vn -0.31656978 0.86821586 -0.38207948
vn -0.18483812 0.74787223 -0.6375908
vn -0.19714193 0.35314873 -0.91456056
vn -0.19491051 0.33184394 -0.92297864
vn -0.0929947 0.43727317 -0.8945078
vn -0.6384578 0.7696251 -0.0069878157
vn -0.106476255 -0.16073184 0.981238
vn 0.011093807 -0.09474312 0.9954399
vn -0.25112975 0.08920182 0.96383446
vn -0.11913457 -0.8133902 0.5693887
vn 0.25739256 -0.58528745 0.76888734
vn 0.22551651 -0.5211931 0.8231039
vn 0.17233165 -0.42918807 0.8866224
vn 0.14774875 -0.3807406 0.9128016
vn 0.39774302 -0.8705205 -0.28981832
vn 0.41078112 -0.8991458 -0.15098248
vn 0.32883936 -0.7239224 -0.60646605
vn 0.34365407 -0.7501802 -0.56491727
vn -0.22274104 -0.73902637 -0.63578814
vn 0.41319782 -0.89221376 0.1822692
vn 0.41173068 -0.8839847 0.22146972
vn 0.42009076 -0.9038081 0.08157542
vn 0.45489866 -0.83934945 -0.29758987
vn 0.6108254 -0.78757536 0.0813473
vn -0.2664812 0.118283674 -0.95655465
vn -0.64644617 -0.03615122 -0.7621026
vn -0.018743116 0.051198266 -0.99851257
vn -0.060767002 0.03128466 -0.9976616
vn -0.07573074 0.05577049 -0.9955675
vn 0.02637651 -0.12483653 -0.99182665
vn -0.20317331 0.23673652 -0.95009285
vn -0.16234957 0.2260669 -0.96048754
vn -0.9904132 0.13808872 0.0036281482
vn -0.022981392 -0.042080503 -0.99884987
vn -0.36558664 -0.9269184 -0.08466806
vn 0.2870796 -0.6337667 0.71827924
vn -0.014697018 0.25801185 0.96603
vn -0.04649724 0.44556254 0.89404255
vn -0.15794311 0.5117146 0.84451294
vn -0.009480918 0.04817792 0.9987938
vn -0.08196019 0.89678174 0.43481615
vn -0.1368137 0.9881862 0.06906623
vn 0.5591033 0.7417149 0.3704895
vn -0.06089649 0.93103725 -0.35980722
vn -0.017035445 0.8011444 -0.5982286
vn 0.39508492 0.08837373 -0.91438395
vn 0.94698817 0.04292823 0.3183876
vn -0.909582 0.41525897 -0.014845609
vn -0.9453796 0.3259282 0.0053078867
vn -0.15211256 0.951818 -0.26627854
vn -0.20806706 0.4298589 -0.8785951
vn -0.22359037 0.5036977 -0.8344435
vn -0.107980415 0.35062304 -0.93027073
vn -0.12289922 0.21088618 -0.969754
vn -0.8132373 0.58174616 0.014716439
vn 0.059261497 -0.21701644 0.97436744
vn 0.04608491 -0.1933322 0.9800505
vn -0.600219 -0.036778517 0.7989896
vn 0.14090155 -0.9287367 0.34292114
vn 0.36954975 -0.35966697 0.85678035
vn 0.33545738 -0.5598453 0.75765526
vn 0.3221756 -0.62577635 0.7103569
vn 0.08567333 -0.27606565 0.95731276
vn 0.5124769 -0.85022396 0.12035983
vn 0.49415475 -0.7503094 0.4391433
vn 0.032052238 0.17466563 0.98410594
vn 0.41664982 -0.903717 -0.09848099
vn 0.4533815 -0.8852142 -0.104120374
vn 0.37022132 -0.809934 -0.45491013
vn -0.29447177 -0.9123769 -0.28434965
vn -0.25005287 -0.84585315 -0.4711753
vn 0.44618088 -0.88420117 0.13824227
vn 0.50792265 -0.8537499 0.11456745
vn 0.70143116 -0.70012605 -0.13348384
vn 0.5439373 -0.7413466 -0.39311242
vn 0.72112495 -0.5218177 -0.45572472
vn 0.5728813 -0.5207494 -0.6329511
vn 0.57719153 -0.6647919 0.474238
vn 0.85123885 -0.5195676 0.07376956
vn 0.3584854 -0.7219861 -0.5917976
vn -0.16250296 0.22672985 -0.9603054
vn -0.9976315 -0.067558736 0.012931333
vn -0.99851936 0.05319958 -0.011352035
vn -0.22500685 -0.40337062 -0.8869408
vn -0.228516 -0.38557556 -0.8939307
vn 0.027692191 0.63774776 0.7697473
vn 0.20343679 -0.030272214 0.97861993
vn 0.508203 0.697714 0.5049009
vn 0.15125196 0.9576774 -0.24490152
vn -0.036841508 0.90412456 0.42567766
vn 0.5237163 0.83456886 0.17092681
vn 0.5387651 0.83876705 0.07875327
vn -0.050632827 0.99372995 0.099685535
vn -0.1275775 0.71993077 0.6822196
vn 0.058712237 0.748901 -0.66007584
vn 0.87045455 -0.47982252 -0.10990531
vn 0.99426305 -0.05547383 -0.09145264
vn -0.114213705 0.29300982 -0.9492631
vn -0.20308883 0.23762901 -0.94988805
vn -0.18532936 -0.030286113 0.9822097
vn -0.5515488 -0.013366472 0.8340355
vn 0.12464978 -0.8916062 0.43531695
vn 0.38953048 -0.83573663 0.38705355
vn 0.35452038 -0.7652058 0.5373783
vn 0.34068137 -0.5539641 0.7596447
vn 0.27647188 -0.45509398 0.84643537
vn 0.38795444 -0.7588154 0.5231544
vn 0.43725127 -0.121907376 0.89103866
vn 0.2082535 0.055829976 0.9764802
vn 0.08831514 -0.17682989 0.9802712
vn 0.002592925 0.025654638 0.9996675
vn 0.18767424 -0.43727717 -0.8795266
vn 0.37415135 -0.8143532 -0.44366613
vn 0.37319738 -0.8150748 -0.4431442
vn -0.21330409 -0.57140875 -0.7924604
vn 0.6753557 -0.47710618 -0.5623738
vn 0.64266384 -0.6241798 -0.44427785
vn 0.6218486 -0.694577 -0.36175585
vn 0.7174022 -0.66994804 0.19105959
vn -0.09026033 0.3107139 -0.9462082
vn 0.06373778 0.15545286 -0.98578495
vn 0.24527329 0.10291156 -0.96397626
vn 0.28796154 -0.6330942 -0.7185192
vn 0.43824854 -0.64950097 -0.62135875
vn 0.21811824 -0.49203604 -0.8428077
vn 0.2876462 -0.5266292 -0.7999508
vn -0.23450221 -0.20947368 -0.9492784
vn 0.066410825 0.54727876 0.8343114
vn 0.60874254 0.042283066 0.79224026
vn 0.120242886 0.80166584 0.585554
vn 0.095789626 0.455047 -0.88530034
vn 0.14010455 0.40110853 -0.9052528
vn 0.46605048 0.85232705 -0.23735094
vn 0.8927116 -0.23052636 -0.38719985
vn 0.730901 -0.67364484 -0.109482385
vn 0.7339502 -0.56812304 -0.3722276
vn 0.94560105 -0.22778346 -0.23227869
vn 0.28109252 -0.31643388 0.90601134
vn 0.42105374 -0.56568474 0.70902354
vn 0.5362604 -0.6813655 0.49816248
vn 0.40767142 -0.77044743 0.490117
vn 0.47401577 -0.5289723 -0.7039157
vn 0.4661676 -0.33598983 -0.81841224
vn 0.3636682 -0.67378587 -0.6432402
vn 0.31925836 -0.62256056 -0.7144875
vn 0.5877799 -0.47043803 -0.65818155
vn 0.7397799 -0.54018456 0.40115613
vn 0.91567695 -0.12515184 0.38193282
vn 0.5430512 -0.56663483 0.6196938
vn 0.57330763 -0.5359648 0.6197259
vn 0.6891629 -0.6833412 0.24103802
vn 0.77187234 -0.6136577 -0.16624469
vn 0.757386 -0.6304606 0.16995794
vn 0.77556926 -0.62119865 0.11227019
vn 0.09474038 0.084591776 -0.99190146
vn 0.041798476 0.0060867392 -0.99910754
vn 0.0987423 -0.09506559 -0.99056166
vn 0.18487135 0.19052926 -0.9641168
vn 0.26410955 -0.59036934 -0.7626992
vn 0.2613708 0.37565407 0.8891397
vn 0.12666847 -0.08927331 0.98791975
vn 0.26452783 0.10554064 0.95858556
vn 0.42258492 0.2925085 -0.85782325
vn 0.35979685 0.42407086 -0.83108974
vn 0.7658138 -0.61593896 -0.18479286
vn 0.76576686 0.099783145 -0.6353302
vn 0.7986793 -0.044259053 -0.60012704
vn 0.642704 -0.33874437 -0.6871563
vn 0.5653333 -0.28227594 -0.77506036
vn 0.37461048 -0.8118165 0.4479072
vn 0.45452747 -0.5220602 0.72170484
vn 0.42433935 -0.23190895 0.8753025
vn 0.44469476 -0.3248012 -0.834716
vn 0.8186834 -0.20688626 0.53568244
vn 0.28722933 -0.15557836 -0.9451427
vn 0.24810427 -0.06656686 -0.9664435
vn 0.3215457 -0.40707892 -0.854924
vn 0.38662905 -0.42547432 -0.8182234
vn 0.23993906 -0.30111912 -0.9229065
vn 0.20578916 -0.23485714 -0.94999623
vn 0.1993002 -0.20620759 -0.9579967
vn 0.102717966 -0.27038658 -0.9572566
vn 0.14573953 -0.35048214 -0.9251607
vn 0.09625375 -0.25624326 -0.96180797
vn 0.15212929 -0.16662617 0.9742137
vn 0.4213289 0.85998076 -0.2879499
vn 0.33767056 0.77224547 -0.5381595
vn 0.39983192 -0.24704506 0.8826682
vn 0.48971832 0.47486952 0.7312147
vn -0.6428465 0.76597536 -0.0054829554
# 268 vertex normals

s 1
f 1//1 2//1 3//1
f 4//2 3//2 2//2
f 5//3 6//3 7//3
f 8//4 9//4 10//4
f 11//5 1//5 12//5
f 10//6 9//6 13//6
f 14//7 15//7 16//7
f 17//8 18//8 19//8
f 20//9 21//9 22//9
f 21//10 20//10 23//10
f 24//11 13//11 11//11
f 24//12 11//12 25//12
f 26//13 13//13 9//13
f 3//14 7//14 1//14
f 20//15 7//15 6//15
f 20//16 1//16 7//16
f 27//17 28//17 29//17
f 30//18 31//18 32//18
f 33//19 31//19 34//19
f 33//20 34//20 35//20
f 33//21 8//21 31//21
f 36//22 10//22 13//22
f 37//23 38//23 39//23
f 37//24 33//24 35//24
f 37//25 39//25 33//25
f 35//26 38//26 37//26
f 40//27 39//27 38//27
f 40//28 14//28 16//28
f 40//29 33//29 39//29
f 40//30 16//30 33//30
f 16//31 15//31 41//31
f 16//32 41//32 17//32
f 16//33 17//33 8//33
f 16//34 8//34 33//34
f 17//35 42//35 43//35
f 18//36 17//36 43//36
f 44//37 43//37 42//37
f 45//38 46//38 41//38
f 45//39 41//39 15//39
f 47//40 17//40 41//40
f 47//41 42//41 17//41
f 48//42 17//42 19//42
f 19//43 49//43 50//43
f 20//44 22//44 1//44
f 51//45 13//45 52//45
f 53//46 11//46 13//46
f 6//47 28//47 27//47
f 5//48 54//48 6//48
f 5//49 55//49 54//49
f 23//50 6//50 27//50
f 23//51 20//51 6//51
f 56//52 25//52 11//52
f 57//53 58//53 59//53
f 57//54 59//54 60//54
f 61//55 55//55 5//55
f 62//56 63//56 48//56
f 64//57 63//57 3//57
f 52//58 13//58 26//58
f 26//59 9//59 8//59
f 65//60 3//60 63//60
f 66//61 2//61 1//61
f 30//62 34//62 31//62
f 30//63 35//63 34//63
f 30//64 32//64 67//64
f 10//65 68//65 8//65
f 69//66 8//66 68//66
f 69//67 67//67 32//67
f 67//68 69//68 68//68
f 24//69 36//69 13//69
f 45//70 40//70 38//70
f 45//71 14//71 40//71
f 70//72 71//72 38//72
f 30//73 72//73 35//73
f 31//74 8//74 69//74
f 31//75 69//75 32//75
f 44//76 73//76 43//76
f 45//77 47//77 46//77
f 45//78 15//78 14//78
f 46//79 47//79 41//79
f 47//80 44//80 42//80
f 49//81 18//81 74//81
f 49//82 19//82 18//82
f 75//83 73//83 44//83
f 17//84 48//84 8//84
f 12//85 1//85 22//85
f 12//86 56//86 11//86
f 51//87 53//87 13//87
f 28//88 6//88 54//88
f 27//89 76//89 23//89
f 77//90 23//90 76//90
f 77//91 21//91 23//91
f 77//92 78//92 21//92
f 79//93 58//93 57//93
f 57//94 5//94 79//94
f 80//95 81//95 82//95
f 83//96 81//96 80//96
f 82//97 81//97 7//97
f 84//98 85//98 55//98
f 84//99 86//99 85//99
f 84//100 55//100 61//100
f 87//101 60//101 59//101
f 88//102 89//102 60//102
f 64//103 48//103 63//103
f 64//104 3//104 4//104
f 90//105 91//105 92//105
f 92//106 91//106 63//106
f 92//107 63//107 62//107
f 93//108 65//108 91//108
f 62//109 48//109 50//109
f 50//110 49//110 92//110
f 64//111 66//111 51//111
f 65//112 63//112 91//112
f 7//113 79//113 5//113
f 76//114 27//114 29//114
f 36//115 94//115 10//115
f 67//116 10//116 94//116
f 67//117 68//117 10//117
f 95//118 36//118 24//118
f 35//119 72//119 38//119
f 45//120 38//120 96//120
f 97//121 70//121 98//121
f 96//122 99//122 47//122
f 99//123 44//123 47//123
f 100//124 101//124 102//124
f 97//125 98//125 103//125
f 64//126 52//126 48//126
f 51//127 52//127 64//127
f 47//128 45//128 96//128
f 73//129 74//129 18//129
f 73//130 18//130 43//130
f 74//131 73//131 75//131
f 90//132 92//132 49//132
f 26//133 48//133 52//133
f 22//134 78//134 56//134
f 12//135 22//135 56//135
f 53//136 66//136 1//136
f 55//137 85//137 54//137
f 104//138 105//138 106//138
f 107//139 77//139 76//139
f 107//140 76//140 29//140
f 22//141 21//141 78//141
f 86//142 60//142 89//142
f 89//143 107//143 86//143
f 95//144 94//144 36//144
f 61//145 5//145 57//145
f 61//146 57//146 60//146
f 83//147 58//147 81//147
f 58//148 79//148 7//148
f 58//149 7//149 81//149
f 86//150 84//150 61//150
f 86//151 61//151 60//151
f 108//152 88//152 60//152
f 109//153 60//153 87//153
f 110//154 111//154 112//154
f 112//155 109//155 113//155
f 114//156 115//156 89//156
f 116//157 103//157 117//157
f 80//158 87//158 83//158
f 62//159 50//159 92//159
f 4//160 2//160 66//160
f 4//161 66//161 64//161
f 118//162 7//162 119//162
f 3//163 119//163 7//163
f 120//164 72//164 67//164
f 121//165 95//165 106//165
f 98//166 70//166 120//166
f 71//167 99//167 96//167
f 72//168 70//168 38//168
f 70//169 97//169 71//169
f 71//170 97//170 122//170
f 71//171 96//171 38//171
f 72//172 30//172 67//172
f 123//173 44//173 99//173
f 111//174 103//174 116//174
f 122//175 97//175 103//175
f 90//176 49//176 74//176
f 48//177 19//177 50//177
f 1//178 11//178 53//178
f 66//179 53//179 51//179
f 28//180 54//180 85//180
f 85//181 86//181 124//181
f 28//182 124//182 29//182
f 77//183 107//183 104//183
f 78//184 77//184 104//184
f 107//185 29//185 124//185
f 125//186 121//186 126//186
f 94//187 95//187 121//187
f 56//188 78//188 25//188
f 95//189 24//189 25//189
f 118//190 119//190 127//190
f 59//191 83//191 87//191
f 59//192 58//192 83//192
f 82//193 7//193 118//193
f 128//194 110//194 112//194
f 109//195 112//195 108//195
f 109//196 108//196 60//196
f 129//197 114//197 88//197
f 90//198 74//198 75//198
f 90//199 75//199 130//199
f 130//200 100//200 102//200
f 131//201 80//201 82//201
f 109//202 87//202 132//202
f 131//203 118//203 127//203
f 131//204 127//204 132//204
f 119//205 3//205 65//205
f 120//206 67//206 94//206
f 126//207 98//207 125//207
f 120//208 70//208 72//208
f 123//209 75//209 44//209
f 100//210 75//210 123//210
f 133//211 71//211 122//211
f 110//212 122//212 111//212
f 129//213 88//213 108//213
f 112//214 111//214 108//214
f 111//215 122//215 103//215
f 104//216 106//216 78//216
f 107//217 115//217 104//217
f 115//218 107//218 89//218
f 86//219 107//219 124//219
f 113//220 109//220 132//220
f 113//221 102//221 128//221
f 132//222 87//222 80//222
f 132//223 80//223 131//223
f 113//224 128//224 112//224
f 117//225 126//225 114//225
f 117//226 103//226 98//226
f 114//227 105//227 115//227
f 105//228 114//228 126//228
f 114//229 89//229 88//229
f 129//230 111//230 116//230
f 129//231 117//231 114//231
f 129//232 116//232 117//232
f 134//233 90//233 130//233
f 91//234 90//234 134//234
f 91//235 134//235 93//235
f 75//236 100//236 130//236
f 118//237 131//237 82//237
f 94//238 125//238 120//238
f 25//239 106//239 95//239
f 121//240 125//240 94//240
f 133//241 101//241 100//241
f 123//242 133//242 100//242
f 108//243 111//243 129//243
f 122//244 101//244 133//244
f 110//245 101//245 122//245
f 128//246 101//246 110//246
f 128//247 102//247 101//247
f 85//248 124//248 28//248
f 105//249 104//249 115//249
f 105//250 126//250 121//250
f 135//251 102//251 113//251
f 98//252 126//252 117//252
f 134//253 102//253 135//253
f 134//254 130//254 102//254
f 135//255 132//255 127//255
f 135//256 113//256 132//256
f 135//257 127//257 136//257
f 135//258 136//258 93//258
f 135//259 93//259 134//259
f 136//260 119//260 65//260
f 136//261 127//261 119//261
f 136//262 65//262 93//262
f 106//263 25//263 78//263
f 133//264 99//264 71//264
f 123//265 99//265 133//265
f 121//266 106//266 105//266
f 120//267 125//267 98//267
f 48//268 26//268 8//268
#268 polygons

