# Aspose.3D Wavefront OBJ Exporter
# Copyright 2004-2024 Aspose Pty Ltd.
# File created: 9/30/2024 3:27:46 PM

g obj_63388340

#
# object obj_63388340
#

v 0 -0.175 -0.225
v 0 -0.175 0.225
v 0 0.175 -0.225
v 0 0.175 0.225
v 0.12 -0.175 0.225
v 0.12 -0.175 -0.225
v 0.12 0.175 0.225
v 0.12 0.175 -0.225
# 8 vertices

vn -1 0 0
vn 1 0 0
vn 0 0 -1
vn 0 -1 0
vn 0 1 0
vn 0 0 1
# 6 vertex normals

s 1
f 1//1 2//1 3//1
f 2//1 4//1 3//1
f 5//2 6//2 7//2
f 6//2 8//2 7//2
f 8//3 6//3 3//3
f 6//3 1//3 3//3
f 6//4 5//4 1//4
f 5//4 2//4 1//4
f 7//5 8//5 4//5
f 8//5 3//5 4//5
f 5//6 7//6 2//6
f 7//6 4//6 2//6
#12 polygons

