<?xml version="1.0" encoding="UTF-8" standalone="no"?>
<!DOCTYPE svg PUBLIC "-//W3C//DTD SVG 1.1//EN"
 "http://www.w3.org/Graphics/SVG/1.1/DTD/svg11.dtd">
<!-- Generated by graphviz version 2.43.0 (0)
 -->
<!-- Title: _177 Pages: 1 -->
<svg width="3236pt" height="763pt"
 viewBox="0.00 0.00 3235.77 763.00" xmlns="http://www.w3.org/2000/svg" xmlns:xlink="http://www.w3.org/1999/xlink">
<g id="graph0" class="graph" transform="scale(1 1) rotate(0) translate(4 759)">
<title>_177</title>
<polygon fill="white" stroke="transparent" points="-4,4 -4,-759 3231.77,-759 3231.77,4 -4,4"/>
<g id="clust1" class="cluster">
<title>cluster177diagram</title>
<polygon fill="none" stroke="black" points="8,-8 8,-747 3219.77,-747 3219.77,-8 8,-8"/>
<text text-anchor="start" x="1579.88" y="-728.8" font-family="Times,serif" font-weight="bold" font-size="14.00">Diagram</text>
<text text-anchor="start" x="1470.88" y="-714.8" font-family="Times,serif" font-size="14.00">name=Foundation_bot_system_diagram</text>
</g>
<g id="clust2" class="cluster">
<title>cluster177subsystems</title>
<polygon fill="none" stroke="white" points="16,-16 16,-695 3211.77,-695 3211.77,-16 16,-16"/>
</g>
<!-- s2 -->
<g id="node1" class="node">
<title>s2</title>
<polygon fill="none" stroke="black" points="887.5,-600 887.5,-634 1518.5,-634 1518.5,-600 887.5,-600"/>
<text text-anchor="start" x="1141.5" y="-620.8" font-family="Times,serif" font-weight="bold" font-size="14.00">MultibodyPlant</text>
<text text-anchor="start" x="1159" y="-606.8" font-family="Times,serif" font-size="14.00">name=plant</text>
<polygon fill="none" stroke="black" points="887.5,-579 887.5,-600 1154.5,-600 1154.5,-579 887.5,-579"/>
<text text-anchor="start" x="962.5" y="-585.8" font-family="Times,serif" font-size="14.00">geometry_query</text>
<polygon fill="none" stroke="black" points="1154.5,-579 1154.5,-600 1518.5,-600 1518.5,-579 1154.5,-579"/>
<text text-anchor="start" x="1282" y="-585.8" font-family="Times,serif" font-size="14.00">geometry_pose</text>
<polygon fill="none" stroke="black" points="887.5,-558 887.5,-579 1154.5,-579 1154.5,-558 887.5,-558"/>
<text text-anchor="start" x="987.5" y="-564.8" font-family="Times,serif" font-size="14.00" fill="grey">actuation</text>
<polygon fill="none" stroke="black" points="1154.5,-558 1154.5,-579 1518.5,-579 1518.5,-558 1154.5,-558"/>
<text text-anchor="start" x="1224.5" y="-564.8" font-family="Times,serif" font-size="14.00">deformable_body_configuration</text>
<polygon fill="none" stroke="black" points="887.5,-537 887.5,-558 1154.5,-558 1154.5,-537 887.5,-537"/>
<text text-anchor="start" x="928" y="-543.8" font-family="Times,serif" font-size="14.00">applied_generalized_force</text>
<polygon fill="none" stroke="black" points="1154.5,-537 1154.5,-558 1518.5,-558 1518.5,-537 1154.5,-537"/>
<text text-anchor="start" x="1318" y="-543.8" font-family="Times,serif" font-size="14.00">state</text>
<polygon fill="none" stroke="black" points="887.5,-516 887.5,-537 1154.5,-537 1154.5,-516 887.5,-516"/>
<text text-anchor="start" x="945.5" y="-522.8" font-family="Times,serif" font-size="14.00">applied_spatial_force</text>
<polygon fill="none" stroke="black" points="1154.5,-516 1154.5,-537 1518.5,-537 1518.5,-516 1154.5,-516"/>
<text text-anchor="start" x="1295.5" y="-522.8" font-family="Times,serif" font-size="14.00">body_poses</text>
<polygon fill="none" stroke="black" points="887.5,-495 887.5,-516 1154.5,-516 1154.5,-495 887.5,-495"/>
<text text-anchor="start" x="910.5" y="-501.8" font-family="Times,serif" font-size="14.00" fill="grey">WorldModelInstance_actuation</text>
<polygon fill="none" stroke="black" points="1154.5,-495 1154.5,-516 1518.5,-516 1518.5,-495 1154.5,-495"/>
<text text-anchor="start" x="1254.5" y="-501.8" font-family="Times,serif" font-size="14.00">body_spatial_velocities</text>
<polygon fill="none" stroke="black" points="887.5,-474 887.5,-495 1154.5,-495 1154.5,-474 887.5,-474"/>
<text text-anchor="start" x="896" y="-480.8" font-family="Times,serif" font-size="14.00" fill="grey">WorldModelInstance_desired_state</text>
<polygon fill="none" stroke="black" points="1154.5,-474 1154.5,-495 1518.5,-495 1518.5,-474 1154.5,-474"/>
<text text-anchor="start" x="1241" y="-480.8" font-family="Times,serif" font-size="14.00">body_spatial_accelerations</text>
<polygon fill="none" stroke="black" points="887.5,-453 887.5,-474 1154.5,-474 1154.5,-453 887.5,-453"/>
<text text-anchor="start" x="905" y="-459.8" font-family="Times,serif" font-size="14.00" fill="grey">DefaultModelInstance_actuation</text>
<polygon fill="none" stroke="black" points="1154.5,-453 1154.5,-474 1518.5,-474 1518.5,-453 1154.5,-453"/>
<text text-anchor="start" x="1247.5" y="-459.8" font-family="Times,serif" font-size="14.00">generalized_acceleration</text>
<polygon fill="none" stroke="black" points="887.5,-432 887.5,-453 1154.5,-453 1154.5,-432 887.5,-432"/>
<text text-anchor="start" x="890.5" y="-438.8" font-family="Times,serif" font-size="14.00" fill="grey">DefaultModelInstance_desired_state</text>
<polygon fill="none" stroke="black" points="1154.5,-432 1154.5,-453 1518.5,-453 1518.5,-432 1154.5,-432"/>
<text text-anchor="start" x="1288" y="-438.8" font-family="Times,serif" font-size="14.00" fill="grey">net_actuation</text>
<polygon fill="none" stroke="black" points="887.5,-411 887.5,-432 1154.5,-432 1154.5,-411 887.5,-411"/>
<text text-anchor="start" x="954.5" y="-417.8" font-family="Times,serif" font-size="14.00" fill="grey">onshape_actuation</text>
<polygon fill="none" stroke="black" points="1154.5,-411 1154.5,-432 1518.5,-432 1518.5,-411 1154.5,-411"/>
<text text-anchor="start" x="1282" y="-417.8" font-family="Times,serif" font-size="14.00">reaction_forces</text>
<polygon fill="none" stroke="black" points="887.5,-390 887.5,-411 1154.5,-411 1154.5,-390 887.5,-390"/>
<text text-anchor="start" x="939.5" y="-396.8" font-family="Times,serif" font-size="14.00" fill="grey">onshape_desired_state</text>
<polygon fill="none" stroke="black" points="1154.5,-390 1154.5,-411 1518.5,-411 1518.5,-390 1154.5,-390"/>
<text text-anchor="start" x="1282" y="-396.8" font-family="Times,serif" font-size="14.00">contact_results</text>
<polyline fill="none" stroke="grey" points="887.5,-390 887.5,-138 1154.5,-138 "/>
<polygon fill="none" stroke="black" points="1154.5,-369 1154.5,-390 1518.5,-390 1518.5,-369 1154.5,-369"/>
<text text-anchor="start" x="1241.5" y="-375.8" font-family="Times,serif" font-size="14.00" fill="grey">WorldModelInstance_state</text>
<polygon fill="none" stroke="black" points="1154.5,-348 1154.5,-369 1518.5,-369 1518.5,-348 1154.5,-348"/>
<text text-anchor="start" x="1171" y="-354.8" font-family="Times,serif" font-size="14.00" fill="grey">WorldModelInstance_generalized_acceleration</text>
<polygon fill="none" stroke="black" points="1154.5,-327 1154.5,-348 1518.5,-348 1518.5,-327 1154.5,-327"/>
<text text-anchor="start" x="1163" y="-333.8" font-family="Times,serif" font-size="14.00" fill="grey">WorldModelInstance_generalized_contact_forces</text>
<polygon fill="none" stroke="black" points="1154.5,-306 1154.5,-327 1518.5,-327 1518.5,-306 1154.5,-306"/>
<text text-anchor="start" x="1211" y="-312.8" font-family="Times,serif" font-size="14.00" fill="grey">WorldModelInstance_net_actuation</text>
<polygon fill="none" stroke="black" points="1154.5,-285 1154.5,-306 1518.5,-306 1518.5,-285 1154.5,-285"/>
<text text-anchor="start" x="1236" y="-291.8" font-family="Times,serif" font-size="14.00" fill="grey">DefaultModelInstance_state</text>
<polygon fill="none" stroke="black" points="1154.5,-264 1154.5,-285 1518.5,-285 1518.5,-264 1154.5,-264"/>
<text text-anchor="start" x="1165.5" y="-270.8" font-family="Times,serif" font-size="14.00" fill="grey">DefaultModelInstance_generalized_acceleration</text>
<polygon fill="none" stroke="black" points="1154.5,-243 1154.5,-264 1518.5,-264 1518.5,-243 1154.5,-243"/>
<text text-anchor="start" x="1157.5" y="-249.8" font-family="Times,serif" font-size="14.00" fill="grey">DefaultModelInstance_generalized_contact_forces</text>
<polygon fill="none" stroke="black" points="1154.5,-222 1154.5,-243 1518.5,-243 1518.5,-222 1154.5,-222"/>
<text text-anchor="start" x="1205.5" y="-228.8" font-family="Times,serif" font-size="14.00" fill="grey">DefaultModelInstance_net_actuation</text>
<polygon fill="none" stroke="black" points="1154.5,-201 1154.5,-222 1518.5,-222 1518.5,-201 1154.5,-201"/>
<text text-anchor="start" x="1285" y="-207.8" font-family="Times,serif" font-size="14.00">onshape_state</text>
<polygon fill="none" stroke="black" points="1154.5,-180 1154.5,-201 1518.5,-201 1518.5,-180 1154.5,-180"/>
<text text-anchor="start" x="1214.5" y="-186.8" font-family="Times,serif" font-size="14.00">onshape_generalized_acceleration</text>
<polygon fill="none" stroke="black" points="1154.5,-159 1154.5,-180 1518.5,-180 1518.5,-159 1154.5,-159"/>
<text text-anchor="start" x="1207" y="-165.8" font-family="Times,serif" font-size="14.00">onshape_generalized_contact_forces</text>
<polygon fill="none" stroke="black" points="1154.5,-138 1154.5,-159 1518.5,-159 1518.5,-138 1154.5,-138"/>
<text text-anchor="start" x="1255" y="-144.8" font-family="Times,serif" font-size="14.00" fill="grey">onshape_net_actuation</text>
</g>
<!-- s3 -->
<g id="node2" class="node">
<title>s3</title>
<polygon fill="none" stroke="black" points="2120.5,-551 2120.5,-585 2399.5,-585 2399.5,-551 2120.5,-551"/>
<text text-anchor="start" x="2212" y="-571.8" font-family="Times,serif" font-weight="bold" font-size="14.00">SceneGraph</text>
<text text-anchor="start" x="2189.5" y="-557.8" font-family="Times,serif" font-size="14.00">name=scene_graph</text>
<polygon fill="none" stroke="black" points="2120.5,-530 2120.5,-551 2351.5,-551 2351.5,-530 2120.5,-530"/>
<text text-anchor="start" x="2197.5" y="-536.8" font-family="Times,serif" font-size="14.00">plant_pose</text>
<polygon fill="none" stroke="black" points="2351.5,-467 2351.5,-551 2399.5,-551 2399.5,-467 2351.5,-467"/>
<text text-anchor="start" x="2354.5" y="-505.3" font-family="Times,serif" font-size="14.00">query</text>
<polygon fill="none" stroke="black" points="2120.5,-509 2120.5,-530 2351.5,-530 2351.5,-509 2120.5,-509"/>
<text text-anchor="start" x="2166.5" y="-515.8" font-family="Times,serif" font-size="14.00">plant_configuration</text>
<polygon fill="none" stroke="black" points="2120.5,-488 2120.5,-509 2351.5,-509 2351.5,-488 2120.5,-488"/>
<text text-anchor="start" x="2154.5" y="-494.8" font-family="Times,serif" font-size="14.00">inertia_visualizer_pose</text>
<polygon fill="none" stroke="black" points="2120.5,-467 2120.5,-488 2351.5,-488 2351.5,-467 2120.5,-467"/>
<text text-anchor="start" x="2123.5" y="-473.8" font-family="Times,serif" font-size="14.00">inertia_visualizer_configuration</text>
</g>
<!-- s2&#45;&gt;s3 -->
<g id="edge17" class="edge">
<title>s2:e&#45;&gt;s3:w</title>
<path fill="none" stroke="black" d="M1519.5,-590C1766.94,-590 1842.64,-656.25 2076,-574 2095.13,-567.26 2095.72,-548.73 2109.57,-542.83"/>
<polygon fill="black" stroke="black" points="2110.3,-546.25 2119.5,-541 2109.03,-539.37 2110.3,-546.25"/>
</g>
<!-- s2&#45;&gt;s3 -->
<g id="edge18" class="edge">
<title>s2:e&#45;&gt;s3:w</title>
<path fill="none" stroke="black" d="M1519.5,-569C1581.35,-569 2018.2,-578.02 2076,-556 2096.01,-548.37 2095.15,-527.28 2109.64,-520.87"/>
<polygon fill="black" stroke="black" points="2110.33,-524.3 2119.5,-519 2109.02,-517.42 2110.33,-524.3"/>
</g>
<!-- s117 -->
<g id="node6" class="node">
<title>s117</title>
<polygon fill="none" stroke="black" points="1701,-244 1701,-278 1937,-278 1937,-244 1701,-244"/>
<text text-anchor="start" x="1704" y="-264.8" font-family="Times,serif" font-weight="bold" font-size="14.00">ContactResultsToLcmSystem</text>
<text text-anchor="start" x="1740.5" y="-250.8" font-family="Times,serif" font-size="14.00">name=contact_to_lcm</text>
<polygon fill="none" stroke="black" points="1701,-223 1701,-244 1819,-244 1819,-223 1701,-223"/>
<text text-anchor="start" x="1750.5" y="-229.8" font-family="Times,serif" font-size="14.00">u0</text>
<polygon fill="none" stroke="black" points="1819,-223 1819,-244 1937,-244 1937,-223 1819,-223"/>
<text text-anchor="start" x="1869" y="-229.8" font-family="Times,serif" font-size="14.00">y0</text>
</g>
<!-- s2&#45;&gt;s117 -->
<g id="edge15" class="edge">
<title>s2:e&#45;&gt;s117:w</title>
<path fill="none" stroke="black" d="M1519.5,-401C1545.75,-401 1542.9,-378 1562,-360 1620.06,-305.29 1617.04,-238.98 1689.74,-233.38"/>
<polygon fill="black" stroke="black" points="1690.14,-236.87 1700,-233 1689.88,-229.87 1690.14,-236.87"/>
</g>
<!-- s122 -->
<g id="node12" class="node">
<title>s122</title>
<polygon fill="none" stroke="black" points="2493.5,-254 2493.5,-302 2746.5,-302 2746.5,-254 2493.5,-254"/>
<text text-anchor="start" x="2549.5" y="-288.8" font-family="Times,serif" font-weight="bold" font-size="14.00">ContactVisualizer</text>
<text text-anchor="start" x="2496.5" y="-274.8" font-family="Times,serif" font-size="14.00">name=meshcat_contact_visualizer</text>
<text text-anchor="start" x="2521.5" y="-260.8" font-family="Times,serif" font-size="14.00">path=/drake/contact_forces</text>
<polygon fill="none" stroke="black" points="2493.5,-233 2493.5,-254 2674.5,-254 2674.5,-233 2493.5,-233"/>
<text text-anchor="start" x="2529.5" y="-239.8" font-family="Times,serif" font-size="14.00">contact_results</text>
<polyline fill="none" stroke="grey" points="2674.5,-212 2746.5,-212 2746.5,-254 "/>
<polygon fill="none" stroke="black" points="2493.5,-212 2493.5,-233 2674.5,-233 2674.5,-212 2493.5,-212"/>
<text text-anchor="start" x="2538" y="-218.8" font-family="Times,serif" font-size="14.00">query_object</text>
</g>
<!-- s2&#45;&gt;s122 -->
<g id="edge9" class="edge">
<title>s2:e&#45;&gt;s122:w</title>
<path fill="none" stroke="black" d="M1519.5,-401C1532.46,-401 2379.92,-259.52 2482.52,-244.32"/>
<polygon fill="black" stroke="black" points="2483.04,-247.78 2492.5,-243 2482.13,-240.84 2483.04,-247.78"/>
</g>
<!-- s123 -->
<g id="node13" class="node">
<title>s123</title>
<polygon fill="none" stroke="black" points="1683,-491 1683,-525 1956,-525 1956,-491 1683,-491"/>
<text text-anchor="start" x="1752.5" y="-511.8" font-family="Times,serif" font-weight="bold" font-size="14.00">InertiaVisualizer</text>
<text text-anchor="start" x="1732" y="-497.8" font-family="Times,serif" font-size="14.00">name=inertia_visualizer</text>
<polygon fill="none" stroke="black" points="1683,-470 1683,-491 1841,-491 1841,-470 1683,-470"/>
<text text-anchor="start" x="1686" y="-476.8" font-family="Times,serif" font-size="14.00">plant_geometry_pose</text>
<polygon fill="none" stroke="black" points="1841,-470 1841,-491 1956,-491 1956,-470 1841,-470"/>
<text text-anchor="start" x="1844" y="-476.8" font-family="Times,serif" font-size="14.00">geometry_pose</text>
</g>
<!-- s2&#45;&gt;s123 -->
<g id="edge11" class="edge">
<title>s2:e&#45;&gt;s123:w</title>
<path fill="none" stroke="black" d="M1519.5,-590C1547.33,-590 1539.97,-561.01 1562,-544 1607.04,-509.23 1620.06,-483.21 1671.86,-480.28"/>
<polygon fill="black" stroke="black" points="1672.1,-483.77 1682,-480 1671.91,-476.77 1672.1,-483.77"/>
</g>
<!-- s171 -->
<g id="node16" class="node">
<title>s171</title>
<polygon fill="none" stroke="black" points="1570,-111 1570,-132 2068,-132 2068,-111 1570,-111"/>
<text text-anchor="start" x="1647" y="-118.8" font-family="Times,serif" font-weight="bold" font-size="14.00">differential_ik_system.DifferentialIKSystem</text>
<polygon fill="none" stroke="black" points="1570,-90 1570,-111 1871,-111 1871,-90 1570,-90"/>
<text text-anchor="start" x="1573" y="-96.8" font-family="Times,serif" font-size="14.00">fsm_state_input : isLeftFoot, phase_input</text>
<polygon fill="none" stroke="black" points="1871,-48 1871,-111 2068,-111 2068,-48 1871,-48"/>
<text text-anchor="start" x="1874" y="-75.8" font-family="Times,serif" font-size="14.00">nimbus_velocity_command</text>
<polygon fill="none" stroke="black" points="1570,-69 1570,-90 1871,-90 1871,-69 1570,-69"/>
<text text-anchor="start" x="1675" y="-75.8" font-family="Times,serif" font-size="14.00">foot_velocity</text>
<polygon fill="none" stroke="black" points="1570,-48 1570,-69 1871,-69 1871,-48 1570,-48"/>
<text text-anchor="start" x="1684" y="-54.8" font-family="Times,serif" font-size="14.00">state [q,v]</text>
</g>
<!-- s2&#45;&gt;s171 -->
<g id="edge26" class="edge">
<title>s2:e&#45;&gt;s171:w</title>
<path fill="none" stroke="black" d="M1519.5,-548C1625.31,-548 1470.5,-90 1559,-59.58"/>
<polygon fill="black" stroke="black" points="1559.67,-63.02 1569,-58 1558.58,-56.11 1559.67,-63.02"/>
</g>
<!-- s3&#45;&gt;s2 -->
<g id="edge16" class="edge">
<title>s3:e&#45;&gt;s2:w</title>
<path fill="none" stroke="black" d="M2400.5,-509C2420.95,-509 2414.12,-477.3 2399.5,-463 2308.17,-373.63 2219.97,-394.67 2112,-463 2080.42,-482.99 2107.09,-518.25 2076,-539 1980.88,-602.48 1657.45,-501.01 1562,-564 1531.47,-584.14 1557.01,-618.6 1526,-638 1405.71,-713.25 988.87,-737.28 887.5,-638 875.35,-626.1 868.38,-602.69 876.85,-593.66"/>
<polygon fill="black" stroke="black" points="878.39,-596.82 886.5,-590 875.91,-590.28 878.39,-596.82"/>
</g>
<!-- s109 -->
<g id="node3" class="node">
<title>s109</title>
<polygon fill="none" stroke="black" points="2488.5,-349 2488.5,-397 2751.5,-397 2751.5,-349 2488.5,-349"/>
<text text-anchor="start" x="2556.5" y="-383.8" font-family="Times,serif" font-weight="bold" font-size="14.00">DrakeVisualizer</text>
<text text-anchor="start" x="2491.5" y="-369.8" font-family="Times,serif" font-size="14.00">name=drake_visualizer(illustration)</text>
<text text-anchor="start" x="2499.5" y="-355.8" font-family="Times,serif" font-size="14.00">channel=DRAKE_VIEWER_DRAW</text>
<polygon fill="none" stroke="black" points="2488.5,-328 2488.5,-349 2665.5,-349 2665.5,-328 2488.5,-328"/>
<text text-anchor="start" x="2531" y="-334.8" font-family="Times,serif" font-size="14.00">query_object</text>
<polyline fill="none" stroke="grey" points="2665.5,-328 2751.5,-328 2751.5,-349 "/>
</g>
<!-- s3&#45;&gt;s109 -->
<g id="edge14" class="edge">
<title>s3:e&#45;&gt;s109:w</title>
<path fill="none" stroke="black" d="M2400.5,-509C2447.98,-509 2421.15,-453.15 2443,-411 2458.71,-380.69 2451.44,-345.92 2477.36,-339.17"/>
<polygon fill="black" stroke="black" points="2477.97,-342.62 2487.5,-338 2477.17,-335.67 2477.97,-342.62"/>
</g>
<!-- s113 -->
<g id="node5" class="node">
<title>s113</title>
<polygon fill="none" stroke="black" points="2451.5,-137 2451.5,-185 2788.5,-185 2788.5,-137 2451.5,-137"/>
<text text-anchor="start" x="2556.5" y="-171.8" font-family="Times,serif" font-weight="bold" font-size="14.00">DrakeVisualizer</text>
<text text-anchor="start" x="2496.5" y="-157.8" font-family="Times,serif" font-size="14.00">name=drake_visualizer(proximity)</text>
<text text-anchor="start" x="2454.5" y="-143.8" font-family="Times,serif" font-size="14.00">channel=DRAKE_VIEWER_DRAW_PROXIMITY</text>
<polygon fill="none" stroke="black" points="2451.5,-116 2451.5,-137 2665.5,-137 2665.5,-116 2451.5,-116"/>
<text text-anchor="start" x="2512.5" y="-122.8" font-family="Times,serif" font-size="14.00">query_object</text>
<polyline fill="none" stroke="grey" points="2665.5,-116 2788.5,-116 2788.5,-137 "/>
</g>
<!-- s3&#45;&gt;s113 -->
<g id="edge8" class="edge">
<title>s3:e&#45;&gt;s113:w</title>
<path fill="none" stroke="black" d="M2400.5,-509C2482.65,-509 2374.74,-158.21 2440.55,-128.06"/>
<polygon fill="black" stroke="black" points="2441.42,-131.46 2450.5,-126 2440,-124.6 2441.42,-131.46"/>
</g>
<!-- s119 -->
<g id="node8" class="node">
<title>s119</title>
<polygon fill="none" stroke="black" points="2478.5,-444 2478.5,-492 2761.5,-492 2761.5,-444 2478.5,-444"/>
<text text-anchor="start" x="2546.5" y="-478.8" font-family="Times,serif" font-weight="bold" font-size="14.00">MeshcatVisualizer</text>
<text text-anchor="start" x="2481.5" y="-464.8" font-family="Times,serif" font-size="14.00">name=meshcat_visualizer(illustration)</text>
<text text-anchor="start" x="2533.5" y="-450.8" font-family="Times,serif" font-size="14.00">path=/drake/illustration</text>
<polygon fill="none" stroke="black" points="2478.5,-423 2478.5,-444 2665.5,-444 2665.5,-423 2478.5,-423"/>
<text text-anchor="start" x="2526" y="-429.8" font-family="Times,serif" font-size="14.00">query_object</text>
<polyline fill="none" stroke="grey" points="2665.5,-423 2761.5,-423 2761.5,-444 "/>
</g>
<!-- s3&#45;&gt;s119 -->
<g id="edge21" class="edge">
<title>s3:e&#45;&gt;s119:w</title>
<path fill="none" stroke="black" d="M2400.5,-509C2444.83,-509 2432,-444.41 2467.4,-434.32"/>
<polygon fill="black" stroke="black" points="2468.04,-437.77 2477.5,-433 2467.13,-430.82 2468.04,-437.77"/>
</g>
<!-- s120 -->
<g id="node10" class="node">
<title>s120</title>
<polygon fill="none" stroke="black" points="2494.5,-539 2494.5,-587 2745.5,-587 2745.5,-539 2494.5,-539"/>
<text text-anchor="start" x="2546.5" y="-573.8" font-family="Times,serif" font-weight="bold" font-size="14.00">MeshcatVisualizer</text>
<text text-anchor="start" x="2497.5" y="-559.8" font-family="Times,serif" font-size="14.00">name=meshcat_visualizer(inertia)</text>
<text text-anchor="start" x="2549" y="-545.8" font-family="Times,serif" font-size="14.00">path=/drake/inertia</text>
<polygon fill="none" stroke="black" points="2494.5,-518 2494.5,-539 2665.5,-539 2665.5,-518 2494.5,-518"/>
<text text-anchor="start" x="2534" y="-524.8" font-family="Times,serif" font-size="14.00">query_object</text>
<polyline fill="none" stroke="grey" points="2665.5,-518 2745.5,-518 2745.5,-539 "/>
</g>
<!-- s3&#45;&gt;s120 -->
<g id="edge22" class="edge">
<title>s3:e&#45;&gt;s120:w</title>
<path fill="none" stroke="black" d="M2400.5,-509C2439.06,-509 2449.58,-524.87 2483.32,-527.6"/>
<polygon fill="black" stroke="black" points="2483.37,-531.11 2493.5,-528 2483.64,-524.11 2483.37,-531.11"/>
</g>
<!-- s121 -->
<g id="node11" class="node">
<title>s121</title>
<polygon fill="none" stroke="black" points="2483.5,-634 2483.5,-682 2756.5,-682 2756.5,-634 2483.5,-634"/>
<text text-anchor="start" x="2546.5" y="-668.8" font-family="Times,serif" font-weight="bold" font-size="14.00">MeshcatVisualizer</text>
<text text-anchor="start" x="2486.5" y="-654.8" font-family="Times,serif" font-size="14.00">name=meshcat_visualizer(proximity)</text>
<text text-anchor="start" x="2538.5" y="-640.8" font-family="Times,serif" font-size="14.00">path=/drake/proximity</text>
<polygon fill="none" stroke="black" points="2483.5,-613 2483.5,-634 2665.5,-634 2665.5,-613 2483.5,-613"/>
<text text-anchor="start" x="2528.5" y="-619.8" font-family="Times,serif" font-size="14.00">query_object</text>
<polyline fill="none" stroke="grey" points="2665.5,-613 2756.5,-613 2756.5,-634 "/>
</g>
<!-- s3&#45;&gt;s121 -->
<g id="edge23" class="edge">
<title>s3:e&#45;&gt;s121:w</title>
<path fill="none" stroke="black" d="M2400.5,-509C2445.54,-509 2412.37,-567.97 2443,-601 2453.99,-612.86 2459.86,-619.88 2472.2,-622.17"/>
<polygon fill="black" stroke="black" points="2472.25,-625.68 2482.5,-623 2472.81,-618.71 2472.25,-625.68"/>
</g>
<!-- s3&#45;&gt;s122 -->
<g id="edge10" class="edge">
<title>s3:e&#45;&gt;s122:w</title>
<path fill="none" stroke="black" d="M2400.5,-509C2444.42,-509 2427.91,-357.24 2443,-316 2457.96,-275.12 2447.28,-229.73 2482.51,-222.88"/>
<polygon fill="black" stroke="black" points="2482.85,-226.37 2492.5,-222 2482.23,-219.39 2482.85,-226.37"/>
</g>
<!-- drakelcminterface94193682096720in -->
<g id="node4" class="node">
<title>drakelcminterface94193682096720in</title>
<ellipse fill="none" stroke="black" cx="3017.88" cy="-151" rx="185.77" ry="18"/>
<text text-anchor="middle" x="3017.88" y="-147.3" font-family="Times,serif" font-size="14.00">drakelcminterface94193682096720in</text>
</g>
<!-- s109&#45;&gt;drakelcminterface94193682096720in -->
<g id="edge1" class="edge">
<title>s109:e&#45;&gt;drakelcminterface94193682096720in</title>
<path fill="none" stroke="#800080" stroke-dasharray="5,2" d="M2760.5,-363C2875.39,-363 2966.54,-234.99 3001.47,-177.91"/>
<polygon fill="#800080" stroke="#800080" points="3004.63,-179.45 3006.77,-169.08 2998.63,-175.85 3004.63,-179.45"/>
</g>
<!-- s113&#45;&gt;drakelcminterface94193682096720in -->
<g id="edge2" class="edge">
<title>s113:e&#45;&gt;drakelcminterface94193682096720in</title>
<path fill="none" stroke="#800080" stroke-dasharray="5,2" d="M2796,-151C2804.41,-151 2812.99,-151 2821.67,-151"/>
<polygon fill="#800080" stroke="#800080" points="2821.88,-154.5 2831.88,-151 2821.88,-147.5 2821.88,-154.5"/>
</g>
<!-- s118 -->
<g id="node7" class="node">
<title>s118</title>
<polygon fill="none" stroke="black" points="2134.5,-180 2134.5,-242 2385.5,-242 2385.5,-180 2134.5,-180"/>
<text text-anchor="start" x="2176.5" y="-228.8" font-family="Times,serif" font-weight="bold" font-size="14.00">LcmPublisherSystem</text>
<text text-anchor="start" x="2142.5" y="-214.8" font-family="Times,serif" font-size="14.00">name=contact_results_publisher</text>
<text text-anchor="start" x="2152" y="-200.8" font-family="Times,serif" font-size="14.00">channel=CONTACT_RESULTS</text>
<text text-anchor="start" x="2137.5" y="-186.8" font-family="Times,serif" font-size="14.00">type=lcmt_contact_results_for_viz</text>
<polygon fill="none" stroke="black" points="2134.5,-159 2134.5,-180 2307.5,-180 2307.5,-159 2134.5,-159"/>
<text text-anchor="start" x="2173.5" y="-165.8" font-family="Times,serif" font-size="14.00">lcm_message</text>
<polyline fill="none" stroke="grey" points="2307.5,-159 2385.5,-159 2385.5,-180 "/>
</g>
<!-- s117&#45;&gt;s118 -->
<g id="edge20" class="edge">
<title>s117:e&#45;&gt;s118:w</title>
<path fill="none" stroke="black" d="M1938,-233C2025.94,-233 2041,-173.78 2123.39,-169.27"/>
<polygon fill="black" stroke="black" points="2123.6,-172.77 2133.5,-169 2123.41,-165.77 2123.6,-172.77"/>
</g>
<!-- s118&#45;&gt;drakelcminterface94193682096720in -->
<g id="edge3" class="edge">
<title>s118:e&#45;&gt;drakelcminterface94193682096720in</title>
<path fill="none" stroke="#800080" stroke-dasharray="5,2" d="M2394.5,-201C2442.7,-201 2402,-129.34 2443,-104 2509.73,-62.76 2717.99,-95.79 2796,-104 2846.1,-109.27 2901.55,-121.09 2944.36,-131.56"/>
<polygon fill="#800080" stroke="#800080" points="2943.58,-134.97 2954.13,-133.98 2945.26,-128.18 2943.58,-134.97"/>
</g>
<!-- meshcat_in -->
<g id="node9" class="node">
<title>meshcat_in</title>
<ellipse fill="none" stroke="magenta" cx="3017.88" cy="-505" rx="50.09" ry="18"/>
<text text-anchor="middle" x="3017.88" y="-501.3" font-family="Times,serif" font-size="14.00">Meshcat</text>
</g>
<!-- s119&#45;&gt;meshcat_in -->
<g id="edge4" class="edge">
<title>s119:e&#45;&gt;meshcat_in</title>
<path fill="none" stroke="magenta" stroke-dasharray="5,2" d="M2770.5,-458C2840.78,-458 2920.36,-476.68 2969.59,-490.48"/>
<polygon fill="magenta" stroke="magenta" points="2968.74,-493.88 2979.32,-493.26 2970.67,-487.15 2968.74,-493.88"/>
</g>
<!-- s120&#45;&gt;meshcat_in -->
<g id="edge5" class="edge">
<title>s120:e&#45;&gt;meshcat_in</title>
<path fill="none" stroke="magenta" stroke-dasharray="5,2" d="M2754.5,-553C2830.63,-553 2917.19,-533.2 2969.39,-519.04"/>
<polygon fill="magenta" stroke="magenta" points="2970.33,-522.41 2979.04,-516.38 2968.47,-515.66 2970.33,-522.41"/>
</g>
<!-- s121&#45;&gt;meshcat_in -->
<g id="edge6" class="edge">
<title>s121:e&#45;&gt;meshcat_in</title>
<path fill="none" stroke="magenta" stroke-dasharray="5,2" d="M2765.5,-648C2860.51,-648 2952.41,-569.87 2993.89,-529.11"/>
<polygon fill="magenta" stroke="magenta" points="2996.44,-531.51 3001.03,-521.97 2991.49,-526.56 2996.44,-531.51"/>
</g>
<!-- s122&#45;&gt;meshcat_in -->
<g id="edge7" class="edge">
<title>s122:e&#45;&gt;meshcat_in</title>
<path fill="none" stroke="magenta" stroke-dasharray="5,2" d="M2755.5,-257C2882.83,-257 2972.93,-413.79 3004.5,-478.04"/>
<polygon fill="magenta" stroke="magenta" points="3001.4,-479.67 3008.9,-487.16 3007.71,-476.64 3001.4,-479.67"/>
</g>
<!-- s123&#45;&gt;s3 -->
<g id="edge19" class="edge">
<title>s123:e&#45;&gt;s3:w</title>
<path fill="none" stroke="black" d="M1957,-480C2026.12,-480 2045.03,-496.29 2109.24,-497.88"/>
<polygon fill="black" stroke="black" points="2109.46,-501.38 2119.5,-498 2109.54,-494.38 2109.46,-501.38"/>
</g>
<!-- s169 -->
<g id="node14" class="node">
<title>s169</title>
<polygon fill="none" stroke="black" points="32.5,-121 32.5,-142 835.5,-142 835.5,-121 32.5,-121"/>
<text text-anchor="start" x="288" y="-128.8" font-family="Times,serif" font-weight="bold" font-size="14.00">FSMStateMachine.FsmStateMachine</text>
<polygon fill="none" stroke="black" points="32.5,-100 32.5,-121 531.5,-121 531.5,-100 32.5,-100"/>
<text text-anchor="start" x="35.5" y="-106.8" font-family="Times,serif" font-size="14.00">fsm_state_input : isLeftFoot, &#160;&#160;&#160;&#160;&#160;&#160;&#160;&#160;&#160;&#160;&#160;&#160;&#160;&#160;&#160;&#160;&#160;&#160;&#160;&#160;&#160;&#160;&#160;&#160;&#160;&#160;&#160;&#160;&#160;&#160;&#160;&#160;&#160;&#160;&#160;&#160;curr_phase_input</text>
<polygon fill="none" stroke="black" points="531.5,-100 531.5,-121 835.5,-121 835.5,-100 531.5,-100"/>
<text text-anchor="start" x="534.5" y="-106.8" font-family="Times,serif" font-size="14.00">fsm_state_input : isLeftFoot, phase_ouput</text>
</g>
<!-- s170 -->
<g id="node15" class="node">
<title>s170</title>
<polygon fill="none" stroke="black" points="890.5,-70 890.5,-91 1514.5,-91 1514.5,-70 890.5,-70"/>
<text text-anchor="start" x="893.5" y="-77.8" font-family="Times,serif" font-weight="bold" font-size="14.00">swing_foot_trajectory_generator_system.SwingFootTrajectoryGeneratorSystem</text>
<polygon fill="none" stroke="black" points="890.5,-49 890.5,-70 1244.5,-70 1244.5,-49 890.5,-49"/>
<text text-anchor="start" x="920" y="-55.8" font-family="Times,serif" font-size="14.00">fsm_state_input : isLeftFoot, phase_input</text>
<polygon fill="none" stroke="black" points="1244.5,-28 1244.5,-70 1514.5,-70 1514.5,-28 1244.5,-28"/>
<text text-anchor="start" x="1274" y="-45.3" font-family="Times,serif" font-size="14.00">Swing foot velocity command</text>
<polygon fill="none" stroke="black" points="890.5,-28 890.5,-49 1244.5,-49 1244.5,-28 890.5,-28"/>
<text text-anchor="start" x="991.5" y="-34.8" font-family="Times,serif" font-size="14.00">foot_angular_velocity</text>
</g>
<!-- s169&#45;&gt;s170 -->
<g id="edge12" class="edge">
<title>s169:e&#45;&gt;s170:w</title>
<path fill="none" stroke="black" d="M836.5,-110C865.23,-110 859.15,-70.6 879.45,-61.06"/>
<polygon fill="black" stroke="black" points="880.41,-64.44 889.5,-59 879,-57.58 880.41,-64.44"/>
</g>
<!-- s169&#45;&gt;s171 -->
<g id="edge24" class="edge">
<title>s169:e&#45;&gt;s171:w</title>
<path fill="none" stroke="black" d="M836.5,-110C1142.95,-110 1219.93,-120.32 1526,-105 1541.28,-104.24 1547.32,-102.15 1558.86,-101.33"/>
<polygon fill="black" stroke="black" points="1559.12,-104.83 1569,-101 1558.89,-97.83 1559.12,-104.83"/>
</g>
<!-- s170&#45;&gt;s171 -->
<g id="edge25" class="edge">
<title>s170:e&#45;&gt;s171:w</title>
<path fill="none" stroke="black" d="M1515.5,-49C1538.93,-49 1541.47,-71.16 1559.02,-77.39"/>
<polygon fill="black" stroke="black" points="1558.57,-80.86 1569,-79 1559.69,-73.95 1558.57,-80.86"/>
</g>
<!-- s174 -->
<g id="node19" class="node">
<title>s174</title>
<polygon fill="none" stroke="black" points="2215.5,-76 2215.5,-97 2304.5,-97 2304.5,-76 2215.5,-76"/>
<text text-anchor="start" x="2218.5" y="-83.8" font-family="Times,serif" font-weight="bold" font-size="14.00">Integrator</text>
<polygon fill="none" stroke="black" points="2215.5,-55 2215.5,-76 2260.5,-76 2260.5,-55 2215.5,-55"/>
<text text-anchor="start" x="2228.5" y="-61.8" font-family="Times,serif" font-size="14.00">u0</text>
<polygon fill="none" stroke="black" points="2260.5,-55 2260.5,-76 2304.5,-76 2304.5,-55 2260.5,-55"/>
<text text-anchor="start" x="2273.5" y="-61.8" font-family="Times,serif" font-size="14.00">y0</text>
</g>
<!-- s171&#45;&gt;s174 -->
<g id="edge28" class="edge">
<title>s171:e&#45;&gt;s174:w</title>
<path fill="none" stroke="black" d="M2069,-79C2130.41,-79 2147.68,-66.49 2204.27,-65.12"/>
<polygon fill="black" stroke="black" points="2204.54,-68.62 2214.5,-65 2204.46,-61.62 2204.54,-68.62"/>
</g>
<!-- s172 -->
<g id="node17" class="node">
<title>s172</title>
<polygon fill="none" stroke="black" points="342.5,-49 342.5,-70 525.5,-70 525.5,-49 342.5,-49"/>
<text text-anchor="start" x="345.5" y="-56.8" font-family="Times,serif" font-weight="bold" font-size="14.00">ConstantVectorSource</text>
<polyline fill="none" stroke="grey" points="342.5,-49 342.5,-28 424.5,-28 "/>
<polygon fill="none" stroke="black" points="424.5,-28 424.5,-49 525.5,-49 525.5,-28 424.5,-28"/>
<text text-anchor="start" x="466" y="-34.8" font-family="Times,serif" font-size="14.00">y0</text>
</g>
<!-- s172&#45;&gt;s170 -->
<g id="edge13" class="edge">
<title>s172:e&#45;&gt;s170:w</title>
<path fill="none" stroke="black" d="M526.5,-38C684.37,-38 726.38,-38 879.27,-38"/>
<polygon fill="black" stroke="black" points="879.5,-41.5 889.5,-38 879.5,-34.5 879.5,-41.5"/>
</g>
<!-- s173 -->
<g id="node18" class="node">
<title>s173</title>
<polygon fill="none" stroke="black" points="2499.5,-49 2499.5,-70 2740.5,-70 2740.5,-49 2499.5,-49"/>
<text text-anchor="start" x="2502.5" y="-56.8" font-family="Times,serif" font-weight="bold" font-size="14.00">position_setter.PositionSetter</text>
<polygon fill="none" stroke="black" points="2499.5,-28 2499.5,-49 2683.5,-49 2683.5,-28 2499.5,-28"/>
<text text-anchor="start" x="2527.5" y="-34.8" font-family="Times,serif" font-size="14.00">desired_velocities</text>
<polyline fill="none" stroke="grey" points="2683.5,-28 2740.5,-28 2740.5,-49 "/>
</g>
<!-- s174&#45;&gt;s173 -->
<g id="edge27" class="edge">
<title>s174:e&#45;&gt;s173:w</title>
<path fill="none" stroke="black" d="M2305.5,-65C2388.56,-65 2410.15,-40.17 2488.17,-38.13"/>
<polygon fill="black" stroke="black" points="2488.55,-41.63 2498.5,-38 2488.46,-34.63 2488.55,-41.63"/>
</g>
</g>
</svg>
